<svg xmlns="http://www.w3.org/2000/svg" viewBox="0 0 1280 720"><defs><style>.cls-1{fill:#ebf7ff;}.cls-2{fill:#f7b49c;}.cls-3{fill:#e3e794;}.cls-4{opacity:0.53;}.cls-5{fill:#009fe3;}.cls-6{fill:#ddb9d8;}.cls-7{fill:#ffe789;stroke:#ffe789;}.cls-10,.cls-11,.cls-12,.cls-14,.cls-15,.cls-17,.cls-18,.cls-19,.cls-20,.cls-21,.cls-22,.cls-23,.cls-24,.cls-25,.cls-26,.cls-34,.cls-35,.cls-36,.cls-37,.cls-38,.cls-39,.cls-40,.cls-41,.cls-42,.cls-45,.cls-46,.cls-47,.cls-51,.cls-55,.cls-7,.cls-8,.cls-9{stroke-linecap:round;stroke-linejoin:round;}.cls-12,.cls-14,.cls-15,.cls-20,.cls-51,.cls-7,.cls-8{stroke-width:2px;}.cls-8{fill:#b3b5dc;}.cls-10,.cls-11,.cls-14,.cls-15,.cls-18,.cls-19,.cls-20,.cls-21,.cls-22,.cls-23,.cls-24,.cls-25,.cls-26,.cls-27,.cls-28,.cls-29,.cls-30,.cls-31,.cls-35,.cls-36,.cls-37,.cls-38,.cls-39,.cls-40,.cls-41,.cls-45,.cls-46,.cls-47,.cls-55,.cls-8,.cls-9{stroke:#0095db;}.cls-10,.cls-12,.cls-14,.cls-22,.cls-26,.cls-35,.cls-42,.cls-45,.cls-47,.cls-51,.cls-52,.cls-55,.cls-9{fill:none;}.cls-9{stroke-width:0.96px;}.cls-10{stroke-width:0.79px;}.cls-11{fill:#fff596;stroke-width:1.43px;}.cls-12{stroke:#c8d9f1;}.cls-13{fill:#f3faff;}.cls-15,.cls-18,.cls-19,.cls-21,.cls-23,.cls-27,.cls-32,.cls-37,.cls-46{fill:#fff;}.cls-16{opacity:0.41;}.cls-17{fill:#94bbe4;stroke:#009edb;}.cls-17,.cls-18{stroke-width:1.36px;}.cls-19{stroke-width:2.38px;}.cls-20{fill:#f7c1da;}.cls-22{stroke-width:1.2px;}.cls-23,.cls-25,.cls-26{stroke-width:1.51px;}.cls-24{fill:#ebf0c4;stroke-width:1.5px;}.cls-25{fill:#fef8fb;}.cls-27,.cls-28,.cls-29,.cls-30,.cls-31{stroke-miterlimit:10;}.cls-28,.cls-38{fill:#fff377;}.cls-29{fill:#d6e7c5;}.cls-30{fill:#ecf7fd;}.cls-31{fill:#f8c9de;}.cls-33{fill:#a4daf8;}.cls-34{fill:#d7daef;stroke:#d7daef;}.cls-34,.cls-35,.cls-37,.cls-38,.cls-39,.cls-40,.cls-41{stroke-width:2.05px;}.cls-36{fill:#f1f9fe;}.cls-36,.cls-42{stroke-width:1.02px;}.cls-39{fill:#efd6e8;}.cls-40{fill:#d0ebfc;}.cls-41{fill:#e6f4fe;}.cls-42,.cls-51{stroke:#009fe3;}.cls-43{fill:#c7e5f6;}.cls-44{fill:#f3f7f9;}.cls-46,.cls-47{stroke-width:1.8px;}.cls-48{fill:#0095db;}.cls-49{fill:#d6bfde;}.cls-50{fill:#96d6f7;}.cls-53{fill:#b5e0f9;}.cls-54{fill:#a8c8ea;}.cls-55{stroke-width:0.87px;}.cls-56{fill:#afa8d3;}.cls-57{fill:#f7f1a2;}.cls-58{fill:#c8d9f1;}</style></defs><title>portal login BG</title><path class="cls-1" d="M0 0h1280v720H0z" id="Vrstva_15" data-name="Vrstva 15"/><g id="Vrstva_14" data-name="Vrstva 14"><path class="cls-2" d="M1134.13 581.71c2.21 2.29-1.49 4.36-1.37 6.48s.76 4.28 3.25 4.39c2.73.11 12.33-7.83 14.83-2.25.81 1.8-2.46 6.77-1.18 8.2 3.68 4.13 4.72.5 6.26-1 1.9-1.68-.46-4.89 1.31-6.57 2.37-2.24 4.39 1.34 6.4 2.13.95.34 4.27.78 4.62-.34s-2.73-3.7-3.44-4.59c-2.84-3.14-6-4.82-10-6.72a19.68 19.68 0 0 0-10.19-2.24c-2.61.11-8.18.45-10.19 2.13"/><path class="cls-3" d="M1161.63 627.5a3 3 0 0 1-2.87-1.75c-.5-1.5.75-2.37.75-3.75-.12-3.87-4.37-.5-5.87.5-2.5 1.38-4.37 2-7.12 1-1.12-.5-2.5-1.12-2.62-2.5-.25-1.75 1.27-1.22 2.38-2.25 4.26-4 1.38-3.12-1.5-3.62-2.5-.37-4.94-3.33-3.44-5.83.88-1.5 6.44-1.79 7.81-3 1.74-1.51 4.63 1.31 6.88.94 2-.37 3-.74 3.36-2.87.13-1.37.29-6.31 3.23-3.94 1.45 1.17 1.66 3.93 3.41 4.93 1.38.88 4 .25 4.63 2 1 2.38-1.25 8.13-2 10.38-1.37 3.63-5.37 6-6.62 9.5"/></g><g id="Vrstva_13" data-name="Vrstva 13"><path class="cls-4 cls-5" d="M1132 286.14a97.64 97.64 0 0 1-3.76 54.13c-6.38 17.17-17.42 30.86-29.93 43.94-20.08 21-24.61 52.82-24.49 80.68a240.46 240.46 0 0 0 4.68 45.89c.27 1.35 2.34.78 2.07-.57-5.75-28.88-7.28-60.38.51-89a86.62 86.62 0 0 1 22.33-39.06c11.56-11.84 21.11-25.74 26.91-41.29 6.62-17.74 7.59-36.79 3.76-55.27-.28-1.35-2.35-.78-2.07.57zM1062.5 220.41c4.61 11.61 8.24 23.7 13.92 34.86a75 75 0 0 0 23.81 27.37c1.13.8 2.2-1.06 1.08-1.86a73.32 73.32 0 0 1-23.62-27.78c-5.26-10.67-8.74-22.13-13.12-33.17-.5-1.27-2.58-.72-2.07.57zM639.31 649.53c4.51-12.79 19-20.57 30.62-25.81 16.66-7.48 33.92-5.89 51.49-3.26 33.34 5 66.46 5.41 99.65-.91 1.14-.22.66-2-.48-1.74a266.68 266.68 0 0 1-56.72 4.84c-18.61-.48-36.73-3.85-55.19-5.7-15.86-1.58-30.12.24-44.39 7.45-10.58 5.35-22.58 12.88-26.72 24.63-.38 1.09 1.35 1.57 1.74.48z"/><path class="cls-4 cls-6" d="M775.84 632.19c15.33.53 30.87.78 46-2.28 15.3-3.1 29.13-9.93 41.46-19.44.9-.7 0-2.26-.91-1.55-12.21 9.41-25.87 16.19-41 19.26-14.95 3-30.34 2.74-45.51 2.22-1.16 0-1.16 1.76 0 1.8z"/><path class="cls-4 cls-5" d="M958.87 638.5c22.89 1.14 50.25-5.2 66.33-22.36 10.5-11.21 13.42-24.5 10.48-39.32-3.22-16.24-10.86-31.18-16-46.84-2.42-7.44-4.62-15.47-3.83-23.37.89-8.86 6.28-15.18 14-19.29 1-.55.11-2.1-.91-1.55-28.85 15.42-8.06 51.63-.19 73.68 5.06 14.17 10.08 31 2.51 45.18-8.41 15.79-24.87 24.59-41.68 28.76a107.2 107.2 0 0 1-30.72 3.32c-1.16-.06-1.15 1.74 0 1.8z"/><path class="cls-7" d="M743.94 653.44l5.25-4.31L791 706.12l-13.05 9.38-4.9-9.38-29.11-52.68z"/></g><g id="Vrstva_12" data-name="Vrstva 12"><path class="cls-8" d="M1172.59 180.36l-2.14.68 10.76 33.77 24.23-7.26s.48 1 2.12.51 1.55-1.74 1.55-1.74l23.51-8.51-10.32-33.29-2.69.86"/><path class="cls-9" d="M720.25 680.7s-4.11.6-5.3-.15-2.29-4.06-2.29-4.06.34 3.51-.66 5.31c-.76 1.52-3.83 2.93-3.83 2.93s3.14-.95 5.11 0 2.84 3.59 2.84 3.59-1-3.86.12-5.08a21.32 21.32 0 0 1 4.01-2.54z"/><path class="cls-10" d="M664.79 613.89s-3.08-1.42-3.56-2.46.24-3.8.24-3.8a10.53 10.53 0 0 1-2.79 3.36c-1.2.7-3.93.3-3.93.3s2.57.75 3.51 2.27a5.48 5.48 0 0 1 .35 3.72s1-3.09 2.34-3.43a17.41 17.41 0 0 1 3.84.04z"/><path class="cls-11" d="M1149 245.19s-5.28 3.22-7.35 2.88-5.51-4.23-5.51-4.23 2.42 4.59 2.24 7.64c-.15 2.52-3.54 6.24-3.54 6.24s3.76-3.13 7-3 6 3.26 6 3.26-3.63-4.7-2.79-7c.6-1.83 3.95-5.79 3.95-5.79z"/><path class="cls-12" d="M219 156.3s-3.46 5.12-5.49 5.68-6.77-1.56-6.77-1.56 4.11 3.17 5.21 6c.91 2.36-.62 7.15-.62 7.15s2.12-4.41 5.12-5.64 6.79.48 6.79.48-5.25-2.77-5.46-5.23c-.17-1.9 1.22-6.88 1.22-6.88z"/><path class="cls-13" d="M944.24 538.88c-1.24 4-4.12 7.59-5.16 11.6-1.24 4.43 2.27 8.22 4.33 11.81 4.74 8 12.58 11.17 21.45 11.6 3.71.21 8 .42 11.55-1.48 3.51-2.11 5.78-7.38 7-11.17 1.86-5.27-2.89-5.06-7.22-6.54s-8.46-3.8-12.58-5.69c-6.6-3.16-12.17-8.64-19.18-10.33"/><path class="cls-14" d="M944.33 537.95s-5.91 10.77-5.89 12.64c.18 15.91 21.72 29 37.74 21 2.12-1.06 10.27-17.65 10.27-17.65z"/><path class="cls-15" d="M935.56 529.08l38.16 1.84 23.62 27.1-37.96-2.18-23.82-26.76z"/><ellipse class="cls-14" cx="925.64" cy="549.06" rx="3.15" ry="3.06" transform="rotate(-66.22 925.723 549.052)"/><path class="cls-14" d="M924.19 552.34a14 14 0 0 0-9.87 8.92l9.33 4.11a11.65 11.65 0 0 0 .54-13.03zM935.73 529.47c-5.3 9.89-9.89 7.64-9.16 15.91"/><g class="cls-16"><path class="cls-17" d="M428.55 688.79l6.6 14.56s1.66-3.79 3.94-4.43a23.11 23.11 0 0 1 5.26-.32l-6.33-15a21.29 21.29 0 0 0-4.06 0c-4.18.4-5.41 5.19-5.41 5.19z"/><path class="cls-17" d="M447.31 679.84l6.91 14.43s-2.81-1.52-6.33 1a29 29 0 0 0-3.53 3.34l-6.59-14.89a12 12 0 0 1 2.86-2.89c2.71-2.01 6.68-.99 6.68-.99z"/></g><path class="cls-18" d="M428.55 687.62l6.6 14.56s1.66-3.79 3.94-4.43a23.11 23.11 0 0 1 5.26-.32l-6.33-15a21.2 21.2 0 0 0-4.06 0c-4.18.36-5.41 5.19-5.41 5.19z"/><path class="cls-18" d="M447.31 678.67l6.91 14.43s-2.81-1.52-6.33 1a29 29 0 0 0-3.53 3.34l-6.59-14.89a12 12 0 0 1 2.86-2.89c2.71-2.01 6.68-.99 6.68-.99z"/><path class="cls-19" d="M1178 459.88l-18.93 51.61 49.93 17.68z"/><path class="cls-20" d="M1178.45 473.77l-12.75 34 33.86 12.68zm-6.21 30.46l6.37-17 10.56 23.36z"/><path class="cls-21" d="M1178.75 479.26l-2.06-.77M1177.7 482.05l-2.06-.77M1177.7 482.05l-2.06-.77M1176.66 484.84l-2.06-.77M1176.66 484.84l-2.06-.77M1175.61 487.63l-2.06-.77M1175.61 487.63l-2.06-.77M1174.57 490.42l-2.06-.77M1174.57 490.42l-2.06-.77M1173.52 493.21l-2.06-.78M1173.52 493.21l-2.06-.78M1172.48 496l-2.06-.78M1172.48 496l-2.06-.78M1171.44 498.78l-2.06-.77M1171.44 498.78l-2.06-.77M1170.39 501.57l-2.06-.77M1170.39 501.57l-2.06-.77M1169.35 504.36l-2.06-.77M1169.32 504.43l-2.06-.77"/><path class="cls-15" d="M786.9 706.42l-10.23 7.35L735 655.8l10.23-7.36 39.28 54.66 2.39 3.32z"/><path class="cls-22" d="M736.89 657.39l3.89-2.8M738.64 659.83l3.89-2.8M741.79 664.22l3.89-2.81M740.04 661.78l3.89-2.8M743.19 666.17l7.31-5.26M744.94 668.6l3.9-2.8M746.69 671.04l3.9-2.8M750.19 675.91l3.9-2.8M748.44 673.47l3.9-2.8M751.59 677.86l6.82-4.9M753.34 680.29l3.9-2.8M755.09 682.73l3.9-2.8M758.59 687.6l3.9-2.8M756.84 685.17l3.9-2.81M760 689.55l6.82-4.9M761.75 691.99l3.89-2.81M763.5 694.42l3.89-2.8M766.65 698.81l3.9-2.8M764.9 696.37l3.89-2.8M768.4 701.24l6.82-4.9M770.15 703.68l3.9-2.8M771.9 706.12l3.9-2.81M775.05 710.5l3.9-2.8M773.3 708.06l3.9-2.8"/><path class="cls-15" d="M1228.42 195.78s-16.33 3.9-20.72 7a2.59 2.59 0 0 0-.79 1L1196.48 171s-.77-1.26.85-2.11c3.79-2 20.88-5.2 20.88-5.2z"/><path class="cls-15" d="M1183.39 210.13s16.26-6.48 21.62-6.51c.63 0 1.91.15 1.91.15L1196.48 171a2.6 2.6 0 0 0-2.59-1c-4.24.58-20.61 8.4-20.61 8.4z"/><path class="cls-14" d="M1202.99 173.96l12.29-3.1M1204.05 177.29l12.3-3.1M1205.12 180.63l12.29-3.1M1206.18 183.97l12.29-3.1"/><path class="cls-23" d="M529.22 641.91l-1.9-1.36-21.66 30.15 21.08 15.71s-.51 1 .89 2.09a1.87 1.87 0 0 0 2.42.21L551.74 703l21.53-29.48-2.38-1.71"/><path class="cls-24" d="M550.65 700s-14-11.7-19.5-13.53a2.82 2.82 0 0 0-1.39 0l21.78-30.31s.6-1.49 2.38-.63c4.18 2 18.05 14.82 18.05 14.82z"/><path class="cls-25" d="M509 670.07s16.18 10 19.67 14.62c.41.55 1.1 1.76 1.1 1.76l21.78-30.31a2.83 2.83 0 0 0-.8-2.91c-3.25-3.32-20.67-12.51-20.67-12.51z"/><path class="cls-26" d="M555.81 661.78l10.67 8.7M553.59 664.87l10.67 8.7M551.38 667.96l10.66 8.7M549.15 671.04l10.67 8.71"/><path class="cls-27" d="M306 696.79a.74.74 0 0 1-1 .26l-23.59-14a.74.74 0 0 1-.26-1l18.8-31.7a.74.74 0 0 1 1-.26l23.59 14a.74.74 0 0 1 .26 1z"/><path class="cls-28" d="M319.84 670a.74.74 0 0 1-1 .26l-20.54-12.18a.74.74 0 0 1-.26-1l2.56-4.31a.74.74 0 0 1 1-.26l20.54 12.18a.74.74 0 0 1 .26 1z"/><path class="cls-29" d="M300.82 666.24a.84.84 0 0 1-1.16.21l-4.55-2.7a.84.84 0 0 1-.38-1.12l1-1.72a.84.84 0 0 1 1.16-.21l4.55 2.7a.84.84 0 0 1 .38 1.12zM308.53 671.33a.84.84 0 0 1-1.16.21l-4.55-2.7a.84.84 0 0 1-.38-1.12l1-1.72a.84.84 0 0 1 1.16-.21l4.55 2.7a.84.84 0 0 1 .38 1.12zM316.54 675.56a.84.84 0 0 1-1.16.21l-4.55-2.7a.84.84 0 0 1-.38-1.12l1-1.72a.84.84 0 0 1 1.16-.2l4.55 2.69a.84.84 0 0 1 .38 1.12zM298.11 670.81a.84.84 0 0 1-1.16.2l-4.55-2.7a.84.84 0 0 1-.38-1.12l1-1.72a.84.84 0 0 1 1.16-.21l4.55 2.7a.84.84 0 0 1 .38 1.12zM305.82 675.9a.84.84 0 0 1-1.16.21l-4.55-2.7a.84.84 0 0 1-.38-1.12l1-1.72a.84.84 0 0 1 1.16-.21l4.55 2.7a.84.84 0 0 1 .38 1.12zM313.84 680.13a.84.84 0 0 1-1.16.2l-4.55-2.69a.84.84 0 0 1-.38-1.12l1-1.72a.84.84 0 0 1 1.16-.21l4.55 2.7a.84.84 0 0 1 .38 1.12zM295.41 675.37a.84.84 0 0 1-1.16.21l-4.55-2.7a.84.84 0 0 1-.38-1.12l1-1.72a.84.84 0 0 1 1.16-.2l4.55 2.7a.84.84 0 0 1 .38 1.12zM303.12 680.46a.84.84 0 0 1-1.16.21l-4.55-2.7a.84.84 0 0 1-.38-1.12l1-1.72a.84.84 0 0 1 1.16-.21l4.55 2.7a.84.84 0 0 1 .38 1.12zM311.13 684.69a.84.84 0 0 1-1.16.21l-4.55-2.7a.84.84 0 0 1-.38-1.12l1-1.72a.84.84 0 0 1 1.16-.2l4.55 2.7a.84.84 0 0 1 .38 1.12zM292.7 679.93a.84.84 0 0 1-1.16.21l-4.55-2.7a.84.84 0 0 1-.38-1.12l1-1.72a.84.84 0 0 1 1.16-.21l4.55 2.7a.84.84 0 0 1 .38 1.12zM300.41 685a.84.84 0 0 1-1.16.2l-4.55-2.7a.84.84 0 0 1-.38-1.12l1-1.72a.84.84 0 0 1 1.16-.2l4.55 2.7a.84.84 0 0 1 .38 1.12zM308.42 689.26a.84.84 0 0 1-1.16.2l-4.55-2.7a.84.84 0 0 1-.38-1.12l1-1.72a.84.84 0 0 1 1.16-.21l4.55 2.7a.84.84 0 0 1 .38 1.12z"/><path class="cls-30" d="M305.42 694.33a.84.84 0 0 1-1.16.21l-4.55-2.7a.84.84 0 0 1-.38-1.12l1-1.72a.84.84 0 0 1 1.16-.2l4.55 2.7a.84.84 0 0 1 .38 1.12z"/><path class="cls-31" d="M297.81 689.82a.85.85 0 0 1-1.18.19L284 682.53a.86.86 0 0 1-.4-1.13l1-1.72a.85.85 0 0 1 1.18-.19l12.65 7.51a.86.86 0 0 1 .4 1.13z"/><path class="cls-32" d="M52.65 484.16h195.21v214.17H52.65z"/><path class="cls-33" d="M53.16 694.83l8.2.43V486.72h-3.59v202.39c0 3-4.61 3-4.61 3zM238.12 694.83l8.2.43V486.72h-3.59v202.39c0 3-4.61 3-4.61 3zM149.48 400.64v10.76l85.74 70.2h11.62l-97.36-80.96z"/><path class="cls-34" d="M109.14 623.78l3.97 2.82h75.32v59.05l3.07.38v-63.02l-82.36.77zM238.12 599.44v-9.73l-175.74-1v4.1l145.51.39s14.58.23 21 2.78c8.59 3.41 9.4 19.72 9.23 21.94s0-18.45 0-18.45M238.12 495.43v-9.73l-175.74-1v4.1l145.51.39s14.58.23 21 2.78c8.59 3.41 9.4 19.72 9.23 21.94s0-18.45 0-18.45"/><path class="cls-35" d="M104.57 623.87l45.09-18.45 45.25 18.62"/><path class="cls-32" d="M149.61 388.86l.13 22.54-88.38 70.2-19.33 2.56-.14-7.68 107.72-87.62"/><path class="cls-36" d="M74.17 499.53h63.53v56.36H74.17zM159.22 499.53h63.54v56.36h-63.54z"/><path class="cls-35" d="M61.36 481.6h176.77v218.78H61.36z"/><path class="cls-35" d="M238.12 487.23h8.71v208.53h-8.71z"/><path class="cls-37" d="M235.05 480.57h14.35v7.17h-14.35zM235.05 695.77h14.35v7.17h-14.35z"/><path class="cls-35" d="M52.65 486.72h8.71v208.53h-8.71z"/><path class="cls-37" d="M50.6 480.06h14.34v7.17H50.6zM50.6 695.26h14.34v7.17H50.6z"/><path class="cls-35" d="M63.41 480.06l86.33-68.66 83.95 69.17"/><path class="cls-35" d="M50.6 484.16h-8.57l-.14-7.68 107.72-87.62 106.45 87.87v7.43h-6.66"/><path class="cls-35" d="M52.13 480.06l97.61-79.67 96.07 80.18"/><circle class="cls-38" cx="149.66" cy="451.54" r="16.57"/><path class="cls-35" d="M64.94 485.18h169.6M106.96 623.01h85.57v63.53h-85.57zM107.02 686.54l-5.7 3.98v5.25l-6.15 4.61v6.66h108.62v-6.66l-6.14-4.61v-5.25l-5.7-3.98M101.32 695.77h96.33M101.32 690.65h96.33"/><path class="cls-35" d="M114.64 630.7h69.68v55.85h-69.68zM149.48 630.7l.26 55.84"/><path class="cls-39" d="M119.25 636.28h25.11v43.86h-25.11zM154.61 636.28h25.11v43.86h-25.11z"/><path class="cls-35" d="M156.15 496.46h69.68v64.04h-69.68zM202.77 496.46v64.04M225.83 528.22h-69.68M178.69 496.46v64.04"/><path class="cls-40" d="M152.56 555.38h78.39v5.12h-78.39z"/><path class="cls-35" d="M71.09 496.46h69.68v64.04H71.09zM117.72 496.46v64.04M140.77 528.22H71.09M93.64 496.46v64.04"/><path class="cls-40" d="M67.51 555.38h78.39v5.12H67.51z"/><path class="cls-35" d="M61.36 574.85h176.77v13.84H61.36z"/><path class="cls-41" d="M97.61 619.85a13.26 13.26 0 0 0-26.52.09v61h26.65v-60.49"/><path class="cls-35" d="M84.41 608.15v72.76M71.09 621.47h26.65M71.09 640.94h26.65M71.09 660.41h26.65"/><path class="cls-41" d="M228.26 621.9a13.26 13.26 0 0 0-26.51.09v61h26.64V622.5"/><path class="cls-35" d="M215.07 610.2v72.76M201.75 623.52h26.64M201.75 642.99h26.64M201.75 662.46h26.64M149.48 434.97v3.59M150 464.18v3.59M165.88 451.37h-3.59M136.68 451.88h-3.59M149.48 442.15v9.22l-4.99 4.99M198.93 616.3s3.25-12 16.14-12.12 16.14 12.64 16.14 12.64M68.27 614.76s3.25-12 16.14-12.12 16.14 12.64 16.14 12.64"/><path class="cls-42" d="M170.62 504.64l-6.02 7.83M169.34 502.8l-3.52 4.74M84.54 504.13l-6.02 7.83M83.26 502.29l-3.52 4.73M109.78 532.51l-9.23 9.68M105.29 532.51l-3.52 4.74"/><path class="cls-43" d="M896.48 635.05l-3.93-.94-27.92 40.06-.66 2.7 4.93-2.53 27.58-39.29z"/><path class="cls-44" d="M869.09 674.35l55.69-19.33-27.68 38.85-28.01-19.52z"/><path class="cls-32" d="M895.82 636.38c-2.4 6.8-9.6 13.2-13.8 19-4.2 5.2-10.8 13-12.4 19.6 2.8.4 8-3 10.6-4.2 4-2 8-4 12.2-5.6 7.2-2.8 14.6-4.4 22.2-6 2.2-.4 9.4-1 9.4-4.2 0-3-7-4.6-9-5.6-3.4-2-6.4-5.2-9.6-7.6-2.2-1.8-9.2-3.8-9.8-6.4"/><path class="cls-14" d="M868.588 674.68l27.786-39.875 28.552 19.896-27.786 39.875z"/><path class="cls-14" d="M896.84 635.3s-3.54-3.31-6.12.38-19.06 27.3-26.24 37.66c-.59.86-2.79 3.3.39 5.39s28.22 19.67 28.22 19.67l3.09-4.43M868.62 674.75a3.12 3.12 0 0 0-3.78 3.52"/><path class="cls-45" d="M894.89 693.06a11.27 11.27 0 0 0-2.77 2l-26.76-18.85"/><path class="cls-14" d="M907.25 649.75l-5.15 7.38M901.4 650.79l6.89 4.81M893.51 662.12l6.89 4.8M886.31 672.45l6.89 4.81M884.25 675.41l6.89 4.8"/><path class="cls-32" d="M1057.58 325.66c-4.22-3.79-10.48-6.5-15.74-9.42-5.52-3.42-9.7-7.86-14.93-11.43-4.8-3.48-10.06-6.41-15.16-9.73-4-2.64-9.44-10.2-14.44-4.11-6.17 6.7 3.79 9.37 8.21 12.11 5.1 3.33 9.32 7.11 14.12 10.59 4.51 3.63 10.19 6.65 15.45 9.58 3.73 2.15 11.33 9.53 15.78 8.78 4.16-.6 4-3.69 6.3-6.46"/><path class="cls-32" d="M1060.36 327.92l-9.9-6.89-6.96 9.66 10.33 7.15 6.53-9.92z"/><path class="cls-46" d="M1062.21 331l-1.34-2.74c-.82-.57-3.41.87-5.28 3.53s-2.31 5.53-1.49 6.1l3.13.21"/><path class="cls-46" d="M1058.88 338.13a2.17 2.17 0 0 1-2-.12c-.72-.51-.3-2.64 1.11-4.65s3.28-3.13 4-2.62a3.47 3.47 0 0 1 .44 2.52"/><path class="cls-46" d="M1076.37 345.09l-.88 1.25c0 .05-3.53-1-4.57-1.14-3.48-.53-4.24-.14-4.81-.38s-7.22-6.69-7.22-6.69a6.94 6.94 0 0 1 1.26-2.75 6 6 0 0 1 2.27-2.12s8.55 3 8.86 3.32c.55.55.67 1.54 2 4a29.58 29.58 0 0 0 3.09 4.51z"/><path class="cls-47" d="M1075.95 345.74l-7.7-5.39"/><ellipse class="cls-48" cx="1068.06" cy="340.2" rx="1.02" ry="1.17" transform="rotate(-54.88 1068.163 340.18)"/><path class="cls-47" d="M1060.87 328.28l-55.74-39s-2-.74-5 3.59-1.23 6.44-1.23 6.44M1054.09 337.92l-55.23-38.62"/><path class="cls-47" d="M1003.33 289.17l-1.08-.76s-2.09-1.09-4.7 2.92-1.06 5.57-1.06 5.57l1.9 1.4"/><path class="cls-49" d="M1000.49 298.4c10.62 7.53 21.78 14.34 32.24 22.12 1.56 1.16 3.06-1.46 1.52-2.6-10.47-7.77-21.62-14.59-32.24-22.12-1.59-1.12-3.09 1.49-1.52 2.6zM1036.33 322.73c4.33 3.69 9.51 6.25 13.7 10.13 1.42 1.32 3.56-.81 2.13-2.13-4.19-3.88-9.36-6.43-13.7-10.13-1.47-1.25-3.61.87-2.13 2.13z"/><path class="cls-32" d="M1163.81 343.34c.6 5.7 2.25 11.25 3.75 16.65 1.65 6.15 2.55 11.7 5.55 17.4 1.2 2.4 3.9 6.45 7 5.25s2.4-5.55 5.4-7a172.11 172.11 0 0 1 17.4-6.45c1.2-.45 5.55-1.35 6.15-2.4 1.65-2.4-2.55-2.85-4.2-2.55-1.8.3-4.65 2.85-6.3 2-1.5-.75-2.1-4.35-2.55-5.7-.9-4.35-1-8.55-2.1-12.9a116.6 116.6 0 0 1-2.25-12.6"/><path class="cls-50" d="M1182.97 377.66l28.07-10.51.3 5.37-29.3 11.82.95-6.58"/><path class="cls-51" d="M1199.58 366.2c-4-8.67-6.82-33.41-6.82-33.41l-28.91 10.27s5.22 40.1 14.82 41.74c4.45.76 32.28-11.68 32.28-11.68s1.46-1.24.3-5.31a5 5 0 0 0-3.91-3.9l-26.44 9.39c.3.53 2.06 2.64 2.16 5.12s-.7 6.25-5.07 6.08"/><path class="cls-51" d="M1177.62 362.64l2-18.88 9.42 14.44M1178.34 355.82l7.11-2.92"/><path class="cls-48" d="M1161.23 382.19c3 8.47 12.48 11 20.58 9.19 1.41-.32.81-2.49-.6-2.17-6.8 1.52-15.26-.38-17.82-7.61-.48-1.36-2.65-.77-2.17.6zM1168.61 398a34.3 34.3 0 0 0 10.8 0c1.43-.22.82-2.39-.6-2.17a30.64 30.64 0 0 1-9.6 0c-1.42-.22-2 1.95-.6 2.17z"/><path class="cls-52" d="M1117.16 598.79c-3.47 4.85.71 16.84 4 21.34 3.61 5 10.78 12.64 16.77 13.93 14 3 31.08-7.35 32.88-22.08 1.71-13.32-9.27-29.65-22.64-32.41-3.24-.7-7.85-.92-10.77.4-2.88 1.07-5.31 3.41-8.23 4.74a18.19 18.19 0 0 0-7.49 5.81c-1 1.35-4.88 8.07-5.13 8"/><path class="cls-53" d="M1151 579.6l9 4.43 4.65 4.12 3.5 5.11 3 8.37.15 8.92-2.74 7.53-5.85 8.76-6.9 4.27-8.24 2.35-7.93-.19s11.58-2.74 15.89-5.64 10-10.52 11.31-19.16c2.51-16.38-15.84-28.87-15.84-28.87z"/><ellipse class="cls-54" cx="1164.94" cy="654.84" rx="26.58" ry="6.01" transform="rotate(-11.77 1164.67 654.75)"/><path class="cls-32" d="M1161.74 645.56c2.19.41 7.86-.93 7.95 2 .13 2.67-5.1 4.34-6.84 4.9a78.16 78.16 0 0 1-18.87 3.16c-2-.12-8.83 1.38-8-2.13.51-2 5.84-3.57 7.58-4.13 4.8-1.37 13.16-5 18.09-3.68"/><path class="cls-14" d="M1140.39 634.58l-.64 3.55"/><circle class="cls-14" cx="1143.83" cy="606.82" r="27.44" transform="rotate(-11.52 1144.315 607.04)"/><path class="cls-14" d="M1152.79 576.77a31.36 31.36 0 0 1-17.72 60.17M1156.12 577.96l-1.25 3.46M1150.11 638.39l2.2 10.74M1170 646.09c.24 1.18-7.2 4.14-16.73 6.08s-17.54 2.14-17.78 1 7.29-3.71 16.82-5.65 17.45-2.61 17.69-1.43z"/><path class="cls-14" d="M1135.49 653.12l.38 2.59c.24 1.18 8.37 1.41 17.9-.54s16.92-5.33 16.68-6.51l-.45-2.58"/><path class="cls-55" d="M1132.63 581.77s1.29 2.18.14 3.64-2.26 2.92-.61 6.46c3.41 7.31 10.82-3.76 16.15-1.07 3.26 1.65 1.36 4.47 1.24 6.08-.34 4.85 4.09 4.28 6.37.7s0-4.68 2.07-5.65 3.38.76 3.91 1.76 2.71 3.83 6.76 1.43M1171 606.51c-.41-.25-4.87.18-5.68-2.14s-3.83-6.26-5.55-3.8 1.15 5.1-1.58 6.43-8.18-2-10.16-.2-6.82.33-7.13 3.72a4 4 0 0 0 4.81 4.47c2.36-.37 2.9.63 2.35 2.3s-4.84 1.32-4 3.71 4.41 3.66 6.38 2.92a25.06 25.06 0 0 0 5.9-3.2c2.94-1.93 3.3.4 3 1.43s-2.63 5 2.81 5.17"/><path class="cls-55" d="M1123.68 588.19c-2.76 6.18.77 3.86 2.14 6.74s-.66 7.47 2.56 5.48c3.63-2.24 5.79-.74 5.74 1.05s-3.56 5.39-.57 6.34 6.39-6.19 9.08-7a3.5 3.5 0 0 1 4.71 2.6M1116.45 605c.74 1.6.44 3.92 1.89 6.16s3.33.52 4.65 3.7-.19 4.5.64 6.43 2.85 1.53 4.36.11c3.28-3.11 7.2-1 5.52 3.1a6.45 6.45 0 0 0-.58 4c.35 1.15 3.3 1.88 6.7 0s5.55 1.94 8 .22c3.89-2.72 7.92-.06 5.7 4.17"/><path class="cls-48" d="M1108.41 609.14c-2.8 6.34 1.12 13.09 4.31 18.51a1.05 1.05 0 0 0 1.82-1.06c-2.7-4.59-6.71-10.94-4.31-16.38.54-1.23-1.27-2.3-1.82-1.06z"/><path class="cls-48" d="M1112.22 619.49c3.11 5.72 6.46 10.63 12.22 13.93a1.05 1.05 0 0 0 1.06-1.82c-5.45-3.13-8.53-7.78-11.46-13.18-.65-1.19-2.46-.13-1.82 1.06z"/><path class="cls-4 cls-5" d="M1081.61 376.21c-25.67 19-40.58 55.58-38.7 87.1.08 1.38 2.23 1.38 2.15 0-1.83-30.71 12.58-66.68 37.64-85.24 1.1-.81 0-2.68-1.09-1.86z"/><path class="cls-4 cls-6" d="M1043.31 563.56c7.14 23.42 1.67 51.14-17.15 67.41-.88.76.4 2 1.27 1.27 19.29-16.68 24.94-45.16 17.62-69.16-.34-1.1-2.07-.63-1.74.48z"/><path class="cls-4 cls-48" d="M285.88 643.24c7.73-3 17-3 25.14-2.21a94 94 0 0 1 29.16 8.07c8.72 3.92 16.38 9.8 25.2 13.48 30.07 12.55 67.54 7.65 97.74-1.82 16.78-5.26 33.51-12.78 46.79-24.52.73-.65-.34-1.71-1.07-1.07-12.43 11-28 18.18-43.61 23.33a190.49 190.49 0 0 1-53.64 9.56c-15.91.48-32.71-1-47.38-7.62-9.06-4.11-17-10.11-26.3-14a95.38 95.38 0 0 0-24.58-6.7c-8.88-1.12-19.31-1.34-27.85 2-.9.35-.51 1.81.4 1.46zM346.56 664.48c16.15 11.17 37.08 18.44 56.77 17.28 1-.06 1-1.57 0-1.51-19.44 1.15-40.06-6-56-17.07-.8-.56-1.56.75-.76 1.31z"/><circle class="cls-15" cx="1105.78" cy="170.08" r="24.44" transform="rotate(-47.61 1105.83 170.07)"/><path class="cls-32" d="M921.83 528.67a1.5 1.5 0 0 0 0-3 1.5 1.5 0 0 0 0 3z"/><path class="cls-56" d="M944.67 543.17c-1.83 5.17-5.17 8.5-2 14 2.67 4.67 7.5 9.17 12.67 10.67-.33-3.83-7.5-7.5-9.17-11.33-1.83-4.17-.5-8.83-1.5-13"/><path class="cls-57" d="M1120.68 157c5.39 5.61 5.85 11.61 4.31 19.1-1.24 6-10.08 14-16.68 12.05 4.22-4.63 9.13-9.9 10.92-16 .88-3-.32-5.5-.72-8.61-.37-3.63-1.73-6.11-3-9.46 1.62-.08 3.84 2.13 5.17 2.92z"/><path class="cls-57" d="M1119.62 158c4.8 5.37 5.49 11.83 3.65 18.66-1.49 5.51-8.84 11.17-14.56 10l.66 2.51c4.6-5 9.08-10.1 11.3-16.68.86-2.55.07-5.38-.47-7.9a69.4 69.4 0 0 0-3.21-11l-1.84 1.84c1.88.39 3.24 1.74 4.77 2.78s3.1-1.51 1.51-2.59c-1.79-1.22-3.33-2.64-5.49-3.09-1-.21-2.29.69-1.84 1.84 2 5.11 4.74 11.7 3.68 17.28-1.13 5.91-6.66 11.11-10.53 15.35a1.51 1.51 0 0 0 .66 2.51c7.47 1.55 14.52-4.32 17.69-10.68 3.76-7.53 1.47-17-3.86-23-1.29-1.35-3.41.78-2.12 2.17z"/><path class="cls-14" d="M1085.72 156.12a52.39 52.39 0 0 1 22.79 12.26c11.34 10.44 12.79 19.75 12.79 19.75"/><path class="cls-14" d="M1089.31 188.13a187.74 187.74 0 0 0 20.46-18.57c9.49-10.31 12.49-17.53 12.49-17.53M1081.41 171.87c9.93-2 25 8.9 24.82 22.65M1109.17 145.88c-4.05 6.61 11.17 22.52 20.79 20.6"/><path class="cls-58" d="M73.53 84.75c-1.58-6.84.66-13.4 6.64-17.27 6.6-4.28 14.29-1.39 19.14 4a1.11 1.11 0 0 0 1.74-.22c3.4-7.49 8.26-14.6 15.34-19 9-5.59 16.76-.09 21.42 8a1.12 1.12 0 0 0 1.74.22c5.8-5.26 12.34-10.32 19.94-12.61 10.4-3.13 15.23 5.33 16.88 14.34a1.11 1.11 0 0 0 1.62.66c7.23-4.74 15.45-6.95 23.88-4.24 7.5 2.41 12.15 9.3 13.21 16.84.2 1.41 2.33.81 2.13-.59-1.11-7.92-6-15-13.64-18-9.19-3.51-18.67-1.22-26.69 4l1.62.66c-1.59-8.63-5.79-17.21-15.78-16.59-9.37.59-18.11 7.89-24.74 13.89l1.74.22c-4.63-8-11.79-13.74-21.26-10.32-9.12 3.29-15.52 13-19.32 21.37l1.74-.22c-5.56-6.14-13.25-8.46-20.88-4.83s-10.39 12.52-8.6 20.28c.32 1.39 2.45.8 2.13-.59z"/><path class="cls-58" d="M133.09 89.29c6.61-12.45 26.77-22.13 35.66-6.63a1.11 1.11 0 0 0 1.51.4c9.2-6.95 20.7-10.26 27.22 1.81a1.11 1.11 0 0 0 1.74.22c4.21-4.76 9.58-9.16 16.34-8.25s10.6 7.66 12.75 13.29a1.12 1.12 0 0 0 1.85.49c7.75-6.13 17.88-8.29 21.47 3.07 2.76 8.74-.25 19.2-6.12 26-2.41 2.77-5.92 4.43-9.06 6.22-4.26 2.43-8.59 4.74-12.93 7-11.18 5.89-25.58 4.88-29.53-9.09a1.12 1.12 0 0 0-1.85-.49c-9.18 7.68-27.41 10.64-30.88-4.23-.32-1.39-2.45-.8-2.13.59 3.87 16.63 24.14 13.94 34.57 5.21l-1.85-.49c3.49 12.35 17.46 18.25 29.13 12.31 5.59-2.85 11.11-5.84 16.58-8.93 4.13-2.33 8.12-4.48 11-8.36 6.09-8.23 8.38-20.1 3.93-29.59-5-10.75-16.69-6.46-23.88-.77l1.85.49c-2.47-6.47-6.34-12.4-13.22-14.59-7.6-2.42-14.88 3.29-19.56 8.58l1.74.22c-7.06-13.08-19.93-10.39-30.24-2.61l1.51.4c-9.71-16.92-32-7.39-39.48 6.63-.67 1.26 1.24 2.37 1.91 1.12z"/><path class="cls-58" d="M170.71 106.41c-.28 5.21-5.79 9.19-10 11.27-7.52 3.71-14 .24-16.43-7.51a1.11 1.11 0 0 0-1.85-.49c-7.3 8.11-26.7 21.1-31.3 3.8a1.11 1.11 0 0 0-1.62-.66 42.49 42.49 0 0 1-13.71 6.94c-2.47.68-5.58 1-7.72-.67-2.86-2.28-1.82-7.58-1.25-10.55a1.12 1.12 0 0 0-1.62-1.25c-8.12 4.39-19.3 5.83-24.35-3.66-4.86-9.1 3.56-16.25 11.9-17.52 1.41-.21.81-2.34-.59-2.13-9.86 1.5-17.84 9.54-13.68 19.85 4.7 11.65 18.68 10.3 27.79 5.37l-1.62-1.2c-1 5.45-1.34 13.87 6.09 14.49 7 .58 14.39-3.71 19.84-7.71l-1.62-.66c5.11 19.21 26.42 6.71 35-2.83l-1.85-.49c2.48 8 8.55 12.3 16.9 9.93 6.07-1.73 13.54-7.46 13.9-14.27.08-1.42-2.13-1.42-2.21 0zM1112.44 59.13c5.51-8.09 12.26-14.73 22.64-12.34 7.28 1.68 13.78 5.49 21.24 6.62 1.51.23 2.16-2.08.64-2.31-8.42-1.28-15.9-6.29-24.33-7.19-10.17-1.09-17 6.23-22.26 14-.87 1.28 1.21 2.48 2.07 1.21z"/><path class="cls-58" d="M1139.91 46.88c7.71-8 17.48-11.18 28.35-8.92a37.59 37.59 0 0 1 18.37 9.65 1.21 1.21 0 0 0 1.7 0c5.44-6.28 14.77-7.44 22.53-5.95 9.77 1.88 16.36 9.23 15.75 19.32-.09 1.55 2.31 1.54 2.4 0 .63-10.58-5.78-18.25-15.7-21.19-8.8-2.61-20.42-1.11-26.68 6.12h1.7c-13.85-13.78-36.37-15-50.11-.73-1.08 1.11.62 2.81 1.7 1.7z"/><path class="cls-58" d="M1222.35 63.91c7.68-2 20.14-2.46 17.73 9-1.56 7.38-9.05 12.6-15.54 15.41a1.21 1.21 0 0 0-.24 1.88c7.92 8.06-2.28 18.18-10 20.53-9.51 2.9-21 .34-28.19-6.51-1.12-1.07-2.82.63-1.7 1.7 8.56 8.18 23 10.89 33.87 5.93 8.22-3.74 15.47-15.42 7.68-23.34l-.24 1.88c8.21-3.55 16.59-10.44 17.07-20 .58-11.65-13.5-10.77-21.1-8.76a1.2 1.2 0 0 0 .64 2.31z"/><path class="cls-58" d="M1186.43 101.85c-7.94 10.71-30.93 14-34.29-2.36a1.2 1.2 0 0 0-1.48-.84 80.57 80.57 0 0 1-28.27 3.48c-4.58-.24-9.84-1-13.52-4-4.67-3.76-2.36-10.12-.06-14.51.72-1.37-1.35-2.58-2.07-1.21-14.4 27.48 30.12 23.14 44.56 18.53l-1.48-.84c3.82 18.62 29.6 15.17 38.68 2.93.92-1.24-1.16-2.44-2.07-1.21z"/><path class="cls-58" d="M1119.29 82.73c-9.85.14-21.5-3.81-21.24-15.5.22-10 10.09-15.25 19-14.7 1.55.09 1.54-2.31 0-2.4-10.68-.65-20.64 5.88-21.41 17.1-.9 13 12.95 18 23.64 17.9a1.2 1.2 0 0 0 0-2.4zM88.06 70c-9.3-1.86-11.37 8.28-10.79 15.43.11 1.41 2.32 1.42 2.21 0-.44-5.4.36-14.82 8-13.3 1.39.28 2-1.85.59-2.13zM237.27 100.56c4.22 3.54 4.69 11.41-.14 14.66-1.18.79-.07 2.71 1.12 1.91 5.94-4 6-13.61.59-18.13-1.08-.91-2.66.65-1.56 1.56zM1192 51.53c7.65-4 13.62-2.38 20.55 2.13 1.3.85 2.5-1.23 1.21-2.07-7.73-5-14.54-6.51-23-2.13-1.37.71-.16 2.78 1.21 2.07zM1156.08 94c.23 6.33 6 9.93 11.55 11.4a1.2 1.2 0 0 0 .64-2.31c-4.45-1.17-9.6-3.89-9.79-9.08-.06-1.54-2.46-1.55-2.4 0z"/><path class="cls-58" d="M1114.06 74.07c-1.32-6.15 3.29-11.19 8-14.44 1.26-.87.07-3-1.21-2.07-5.67 3.92-10.66 9.85-9.09 17.15.33 1.51 2.64.87 2.31-.64z"/></g></svg>
