<svg xmlns="http://www.w3.org/2000/svg" width="25" height="14" viewBox="0 0 25 14"><g fill="transparent" fill-rule="evenodd"><rect width="344" height="46" x=".5" y="128.5" stroke="#DDD" rx="6" transform="translate(-309 -145)"/><path fill="#9B9A98" fill-rule="nonzero" d="M12.5.864C5.893.864.81 6.684.81 6.684l-.47.52.47.52s4.635 5.285 10.8 5.772c.293.037.585.05.89.05.305 0 .597-.013.892-.05 6.163-.487 10.8-5.77 10.8-5.77l.47-.52-.47-.52S19.106.862 12.5.862zm0 1.585c1.745 0 3.356.476 4.756 1.113a5.47 5.47 0 0 1 .792 2.85 5.544 5.544 0 0 1-4.93 5.522c-.015.002-.032 0-.05 0-.187.01-.376.025-.568.025-.21 0-.414-.012-.62-.025a5.544 5.544 0 0 1-4.928-5.523c0-1.034.278-1.996.768-2.824h-.025c1.41-.65 3.04-1.14 4.805-1.14zm0 1.584a2.378 2.378 0 1 0 0 4.756 2.378 2.378 0 0 0 0-4.756zm-6.935.743a7.078 7.078 0 0 0-.2 1.635c0 1.39.4 2.69 1.09 3.79a18.303 18.303 0 0 1-3.838-2.997 19.067 19.067 0 0 1 2.948-2.428zm13.87 0a19.067 19.067 0 0 1 2.948 2.428 18.303 18.303 0 0 1-3.84 2.997 7.087 7.087 0 0 0 1.09-3.79 7.09 7.09 0 0 0-.198-1.635z"/></g></svg>
