<svg xmlns="http://www.w3.org/2000/svg" width="40" height="37" viewBox="0 0 40 37"><g fill="none" fill-rule="evenodd" transform="translate(-30 -32)"><rect width="100" height="100" rx="50"/><path d="M48.4 39.43a1.53 1.53 0 0 1 0-.2c-.853-1.6-3.28-3.287-7.733-3.516a16.922 16.922 0 0 0-8 2.857v25.716a19.954 19.954 0 0 1 9.6-2.286c2.118.13 4.196.672 6.133 1.6V39.43zm2.933-.144v24.17a16.523 16.523 0 0 1 6.134-1.6h.826c3.067.026 6.08.86 8.774 2.43V38.57a17.99 17.99 0 0 0-8-2.542c-2.916-.304-5.79.907-7.734 3.257z"/><path fill="#FFF" d="M69.093 36.486c-3.047-1.95-6.484-3.096-10.026-3.343-3.35-.195-6.632 1.05-9.12 3.457-2.53-2.48-5.853-3.82-9.28-3.743-3.595.287-7.063 1.545-10.08 3.657a1.46 1.46 0 0 0-.587 1.2v29.143c.004.552.305 1.052.773 1.284a1.263 1.263 0 0 0 1.414-.197c2.96-2.17 6.496-3.254 10.08-3.086 2.246.167 4.43.86 6.4 2.03.123.314.35.57.64.713.15.028.303.028.453 0h.373c.5.066.97-.258 1.12-.77A14.693 14.693 0 0 1 57.6 64.8c3.564-.355 7.124.736 9.973 3.057.39.388.958.49 1.445.26.486-.23.8-.747.795-1.317V37.714c-.013-.52-.29-.99-.72-1.228zm-36.426 27.8V38.57a16.922 16.922 0 0 1 8-2.857c4.506.257 6.933 1.915 7.84 3.515a1.53 1.53 0 0 0 0 .2V63.6a16.523 16.523 0 0 0-6.134-1.6 19.95 19.95 0 0 0-9.706 2.286zm34.4 0a17.662 17.662 0 0 0-8.774-2.23h-.826c-2.12.13-4.197.673-6.134 1.6V39.43c1.91-2.414 4.79-3.69 7.734-3.43a17.99 17.99 0 0 1 8 2.544v25.743z"/></g></svg>
