<svg xmlns="http://www.w3.org/2000/svg" xmlns:xlink="http://www.w3.org/1999/xlink" width="38" height="40" viewBox="0 0 38 40"><defs><rect id="a" width="100" height="100" rx="50"/></defs><g fill="none" fill-rule="evenodd"><g transform="translate(-31 -30)"><use xlink:href="#a"/><rect width="98" height="98" x="1" y="1" stroke="#377FEA" stroke-width="2" rx="49"/></g><path fill="#582C83" d="M6.86 36.394h-.243c-.886 1.233-2.507 2.55-4.064 3.486l.05.12c2.437-.357 6.534-.447 10.446-.057l.033-.116c-2.234-.734-5.047-2.163-6.223-3.433zm29.432-12.86c0-.15.967-4.724.96-6.494-.02-4.206.048-8.158-2.658-11.45-3.562-4.34-9.964-7.21-19.77-4.587C5.02 3.626.947 9.315.088 14.837c-.65 4.196 2.56 8.546 2.58 8.696a4.71 4.71 0 0 0-1.566 4.712 4.765 4.765 0 0 0 3.542 3.513l.027.11c.14.333 3.57 7.522 14.81 7.522 11.236 0 14.663-7.2 14.824-7.522l.024-.11a4.77 4.77 0 0 0 3.54-3.512 4.712 4.712 0 0 0-1.56-4.713h-.016zm-3.302-5.56c-.5 1.03-1.843 2.666-2.763 3.546-1.395 1.31-5.09 3.726-8.518 4.646-3.428.92-7.85.666-9.72.246a16.036 16.036 0 0 1-4.194-1.666c-2.992-2-4.673-6.91-3.97-10.965a9.734 9.734 0 0 1 2.51-4.702c2.023-2.023 5.787-2.85 8.273-2.356.542.11 1.927.577 1.927.577s.96-1.1 1.37-1.464c1.898-1.667 5.56-2.833 8.344-2.1a9.903 9.903 0 0 1 4.57 2.806c2.672 3.126 3.74 8.225 2.17 11.435v-.003zm-9.637-5.026c-1.87 1.906-2.91 4.976-3.248 7.362-1.506-1.893-3.97-4.023-6.56-4.736-2.666-.733-6.423 1.15-6.766 3.8.882.713 3.83 1.41 6.064.696 1.418-.457 2.133-1.517 3.01-2.38a25.623 25.623 0 0 1 5.053 5.533c.15-2.495.67-4.954 1.54-7.3 1.193.308 2.36.864 3.81.55 2.292-.496 4.48-2.57 4.88-3.632-1.65-2.11-5.866-1.86-7.784.108zm8.994 23.446h-.243c-1.173 1.273-3.993 2.7-6.23 3.43l.033.116c3.92-.39 8.02-.3 10.446.057l.05-.12c-1.556-.933-3.177-2.25-4.056-3.483z"/></g></svg>
