<svg xmlns="http://www.w3.org/2000/svg" width="16" height="17" viewBox="0 0 16 17"><g fill="#377FEA" fill-rule="nonzero"><path d="M6.19 12.963C2.853 12.963.07 10.13.07 6.73S2.852.495 6.19.495c3.34 0 6.122 2.833 6.122 6.233 0 3.4-2.783 6.233-6.122 6.233zm0-11.334c-2.78 0-5.007 2.266-5.007 5.1 0 2.832 2.226 5.1 5.008 5.1 2.784 0 5.01-2.268 5.01-5.1 0-2.834-2.226-5.1-5.01-5.1z"/><path d="M10.643 10.483l4.87 4.96a.563.563 0 0 1 0 .778c-.14.143-.348.143-.417.143-.14 0-.348 0-.418-.142l-4.87-4.958.835-.78z"/></g></svg>
