<svg xmlns="http://www.w3.org/2000/svg" width="100" height="91" viewBox="0 0 100 91"><g fill="none" fill-rule="evenodd"><rect width="824" height="442" x=".5" y=".5" stroke="#DDD" rx="6" transform="translate(-362 -20)"/><g fill-rule="nonzero"><path fill="#D9EFFD" d="M94.017 77.118H15.034c-2.564 0-4.607-2.438-4.607-5.443V6.8c0-3.004 2.06-5.443 4.607-5.443H39.82a6.227 6.227 0 0 1 4.565 2.078l4.983 6.62a4.265 4.265 0 0 0 3.085 1.4h41.564c2.564 0 4.607 2.436 4.607 5.44v54.78c.034 3.015-2.043 5.444-4.607 5.444z"/><path fill="#209DD9" d="M94.017 78.475H15.034c-3.282 0-5.983-3.048-5.983-6.8V6.8c0-3.752 2.676-6.8 5.984-6.8H39.82a7.55 7.55 0 0 1 5.52 2.49l.096.11 4.99 6.56c.53.576 1.272.91 2.053.927h41.537c3.282 0 5.983 3.048 5.983 6.8v54.788c0 3.752-2.658 6.8-5.983 6.8zM15.034 2.72c-1.795 0-3.248 1.83-3.248 4.078v64.876c0 2.25 1.462 4.078 3.248 4.078h78.983c1.795 0 3.248-1.828 3.248-4.078V16.887c0-2.25-1.462-4.078-3.248-4.078H52.453a5.562 5.562 0 0 1-4.077-1.83l-.094-.112-4.932-6.576a4.862 4.862 0 0 0-3.504-1.588l-24.812.017z"/><path fill="#D9EFFD" d="M89.265 83.06h-79.01c-2.563 0-4.605-2.44-4.605-5.444V12.74c0-3.005 2.042-5.443 4.606-5.443h24.787a6.227 6.227 0 0 1 4.538 2.06l4.984 6.62a4.265 4.265 0 0 0 3.086 1.4h41.598c2.564 0 4.607 2.437 4.607 5.442v54.796c.017 3.005-2.043 5.443-4.59 5.443z"/><path fill="#209DD9" d="M89.265 84.415h-79.01c-3.28 0-5.98-3.047-5.98-6.8V12.74c0-3.752 2.674-6.8 5.98-6.8h24.788a7.55 7.55 0 0 1 5.52 2.49l.095.112 4.94 6.56c.53.574 1.27.91 2.052.926h41.598c3.282 0 5.983 3.048 5.983 6.8v54.788c-.008 3.752-2.674 6.8-5.965 6.8zM10.255 8.662c-1.793 0-3.246 1.83-3.246 4.078v64.876c0 2.25 1.46 4.078 3.246 4.078h79.018c1.794 0 3.247-1.83 3.247-4.078v-54.79c0-2.248-1.46-4.077-3.246-4.077H47.667a5.562 5.562 0 0 1-4.077-1.838l-.094-.11-4.94-6.56a4.862 4.862 0 0 0-3.513-1.58H10.256z"/><path fill="#D9EFFD" d="M84.974 89H5.984c-2.565 0-4.608-2.438-4.608-5.443V18.69c0-3.005 2.06-5.443 4.607-5.443H30.77a6.227 6.227 0 0 1 4.538 2.06l4.983 6.62a4.265 4.265 0 0 0 3.086 1.4h41.598c2.564 0 4.607 2.436 4.607 5.44v54.798c0 3.005-2.067 5.435-4.606 5.435z"/><path fill="#209DD9" d="M84.974 90.365H5.984C2.7 90.365 0 87.317 0 83.565V18.69c0-3.75 2.675-6.8 5.983-6.8H30.77a7.55 7.55 0 0 1 5.52 2.49l.095.112 4.94 6.56c.53.575 1.27.91 2.05.926h41.6c3.28 0 5.982 3.048 5.982 6.8v54.788c-.025 3.743-2.7 6.8-5.983 6.8zm-78.99-75.77c-1.796 0-3.25 1.828-3.25 4.077v64.893c0 2.25 1.463 4.078 3.25 4.078h78.99c1.795 0 3.248-1.828 3.248-4.078V28.777c0-2.25-1.46-4.078-3.248-4.078H43.376a5.562 5.562 0 0 1-4.06-1.838l-.094-.112-4.94-6.56a4.862 4.862 0 0 0-3.513-1.596H5.982z"/><path fill="#FFF" d="M9.872 34.975h47.376v44.787H9.872z"/><path fill="#209DD9" d="M57.265 81.12H9.872a1.362 1.362 0 0 1-1.325-1.358V34.975a1.362 1.362 0 0 1 1.35-1.357h47.368c.744.005 1.346.61 1.35 1.357v44.787a1.362 1.362 0 0 1-1.35 1.357zM11.23 78.396h44.667V36.33H11.23v42.067z"/><path fill="#FFF" d="M64.222 38.048h15.88"/><path fill="#209DD9" d="M80.103 39.413h-15.88c-.75 0-1.355-.61-1.355-1.36 0-.752.606-1.36 1.354-1.36h15.88c.75 0 1.355.61 1.355 1.36 0 .75-.606 1.36-1.354 1.36z"/><path fill="#FFF" d="M64.222 44.212h15.88"/><path fill="#209DD9" d="M80.103 45.57h-15.88c-.75 0-1.355-.61-1.355-1.362 0-.752.606-1.36 1.354-1.36h15.88c.75 0 1.355.608 1.355 1.36 0 .75-.606 1.36-1.354 1.36z"/><path fill="#FFF" d="M64.222 51.123h15.88"/><path fill="#209DD9" d="M80.103 52.488h-15.88c-.75 0-1.355-.61-1.355-1.36 0-.752.606-1.36 1.354-1.36h15.88c.75 0 1.355.608 1.355 1.36 0 .75-.606 1.36-1.354 1.36z"/><path fill="#FFF" d="M64.222 59.322h15.88"/><path fill="#209DD9" d="M80.103 60.687h-15.88c-.75 0-1.355-.61-1.355-1.36 0-.753.606-1.36 1.354-1.36h15.88c.75 0 1.355.607 1.355 1.36 0 .75-.606 1.36-1.354 1.36zM80.103 68.8h-15.88c-.75 0-1.355-.61-1.355-1.36 0-.753.606-1.362 1.354-1.362h15.88c.75 0 1.355.61 1.355 1.36 0 .752-.606 1.36-1.354 1.36zM33.18 56.394a6.935 6.935 0 0 1-4.624-2.07 7.387 7.387 0 0 1-2.325-3.673 6.135 6.135 0 0 1 .736-4.043 1.36 1.36 0 0 1 .12-.352 6.71 6.71 0 0 1 .555-.927v-.05a7.192 7.192 0 0 1 6.874-2.99 7.213 7.213 0 0 1 5.802 4.757c.25.678.37 1.398.35 2.12a5.95 5.95 0 0 1-.81 2.662 10.084 10.084 0 0 1-3.326 3.434c-.756.53-1.61.9-2.513 1.09a4.91 4.91 0 0 1-.838.044zm-3.265-9.615c-.906 1.716-1.19 2.575-1.035 3.22.256.923.783 1.75 1.513 2.368.513.472 1.846 1.537 3.188 1.313a4.12 4.12 0 0 0 1.497-.685 7.393 7.393 0 0 0 2.453-2.507c.263-.435.42-.926.46-1.434a3.008 3.008 0 0 0-.195-1.107 4.487 4.487 0 1 0-7.88-1.168z"/><path fill="#209DD9" d="M44.598 80.853c-.74 0-1.34-.597-1.35-1.34a55.062 55.062 0 0 0-2.564-15.753c-1.248-3.932-2.812-6.138-4.932-6.937a2.75 2.75 0 0 0-1.812-.163 4.495 4.495 0 0 1-1.23.206c-.693.043-1.3.086-2.462 1.383-5.205 5.802-7.863 12.44-8.376 20.87a1.354 1.354 0 0 1-1.42 1.286 1.356 1.356 0 0 1-1.28-1.425c.537-8.953 3.512-16.31 9.033-22.526 1.752-1.957 3.086-2.197 4.274-2.275.177-.004.355-.027.53-.07a5.354 5.354 0 0 1 3.622.164c3.898 1.46 5.616 5.64 6.573 8.653a57.82 57.82 0 0 1 2.692 16.535c.01.75-.586 1.368-1.333 1.382l.034.01zm-20.572 8.91a1.35 1.35 0 0 1-1.16-.65 1.362 1.362 0 0 1-.045-1.332c.08-.16.14-.33.18-.506a2.412 2.412 0 0 1-.316-.25 2.22 2.22 0 0 1-.7-1.93c.023-.16.066-.315.127-.464.07-.178.166-.346.283-.498a2.19 2.19 0 0 1 2.87-.654 2.21 2.21 0 0 1 .942 2.8 2.31 2.31 0 0 1-.436.687 4.97 4.97 0 0 1-.54 2.086c-.24.444-.702.718-1.204.714zm43.658-.386h-.163a1.35 1.35 0 0 1-.915-.483 1.36 1.36 0 0 1-.306-.993l.11-1.192a2.364 2.364 0 0 1-1.068-2.044c.002-.235.037-.47.102-.695.062-.4.233-.776.496-1.083a1.876 1.876 0 0 1 1.855-.626l.256.086c.24.044.475.122.694.232a2.37 2.37 0 0 1 1.34 1.863 1.962 1.962 0 0 1-.597 1.64 1.796 1.796 0 0 1-.273.207l-.17 1.846a1.353 1.353 0 0 1-1.36 1.244z"/></g></g></svg>
