<svg xmlns="http://www.w3.org/2000/svg" width="117" height="111" viewBox="0 0 117 111"><g fill="none" fill-rule="evenodd"><rect width="413" height="442" x=".5" y=".5" stroke="#DDD" rx="6" transform="translate(-148 -38)"/><g transform="translate(1 1)"><ellipse cx="73.58" cy="40.68" fill="#A1D9F7" rx="40.7" ry="9.28"/><path fill="#E6F4FD" d="M115.76 40.79v50.94c0 9.75-18.22 16.17-40.7 16.17-22.48 0-40.7-9-40.7-16.17V40.79c0 5.13 18.22 9.28 40.7 9.28 22.48 0 40.7-4.15 40.7-9.28z"/><ellipse cx="73.88" cy="40.79" stroke="#2591D0" stroke-width="2.555" rx="40.7" ry="9.28"/><path stroke="#2591D0" stroke-width="2.555" d="M33.19 40.79v50.94c0 7.13 18.22 16.17 40.7 16.17 22.48 0 40.7-6.43 40.7-16.17V40.79"/><path fill="#FFF" stroke="#2591D0" stroke-width="2.555" d="M108.5 39.6c.19-20.68-17.2-37-36.41-35.94-17.73 1-32.6 16.44-32.6 35.46a2.65 2.65 0 0 0 2.38 1.67c2.59-.35 2.58-1.38 2.59-1.93.14-15.94 12.67-29.17 28.11-29.72C89 8.55 103.24 22.48 102.79 39.6a3.14 3.14 0 0 0 2.86 1.67 3.68 3.68 0 0 0 2.85-1.67z"/><path stroke="#2591D0" stroke-width="2.555" d="M37.75 39a1.85 1.85 0 0 0 .43 2.44 5 5 0 0 0 2.55.93 11.9 11.9 0 0 0 5.62-.13 3.62 3.62 0 0 0 1.57-.94 2.45 2.45 0 0 0-2.08-4.07l.79.19"/><path fill="#B7C8E8" stroke="#2591D0" stroke-width="2.555" d="M70.38 78.06a9.66 9.66 0 0 1-4.09-4.87 7.12 7.12 0 0 1 .62-5.89 9.18 9.18 0 0 1 3.18-3.71 13.86 13.86 0 0 1 5.56-1.76 8.92 8.92 0 0 1 9.29 5.06 8.06 8.06 0 0 1-3.23 9.88 2.83 2.83 0 0 0-1.28 1 2.41 2.41 0 0 0-.14 1.23 86.74 86.74 0 0 1-.18 10.57 1.58 1.58 0 0 1-.31 1 1.61 1.61 0 0 1-1.42.25c-1.813-.28-3.607-.553-5.38-.82a2 2 0 0 1-1.06-.39 1.91 1.91 0 0 1-.46-.89 25.7 25.7 0 0 1-1-10.34"/><path stroke="#2591D0" stroke-width="2.555" d="M80.33 77.2c-1.08-.41-2.14-2.4-2.9-3.59a1.1 1.1 0 0 1-.25-.82c.08-.29.37-.46.63-.62a5.5 5.5 0 0 0 2.51-4.95c-.14-1.94-.24-4.85-4.66-5.38"/><path stroke="#2591D0" stroke-width="2.555" d="M77.18 72.78c-.58 3.91-1.23 8.44-1.81 12.35-1.25-.08-3.45-.1-4.7-.06m4.39.06c1.64 2.28 2 3.8 4.19 5.62"/><path stroke="#B4E0F9" stroke-width="2.667" d="M109.92 51.51c-.467 14-1.273 27.96-2.42 41.88m-3.18-29.05a330.4 330.4 0 0 1-3.89 34.28"/><path stroke="#E6E140" stroke-dasharray="3.569887399673462,5.711820125579834" stroke-width="2.555" d="M27.34.09l4.28 12.85M5 23.42l14.28 9M.24 65.36c6.153-3.4 12.457-6.51 18.91-9.33"/></g></g></svg>
