<svg xmlns="http://www.w3.org/2000/svg" width="40" height="37" viewBox="0 0 40 37"><g fill="none" fill-rule="evenodd" transform="translate(-30 -36)"><rect width="100" height="100" y="4" rx="50"/><path fill="#FFF" d="M34.83 73a1.36 1.36 0 0 1-.777-.255 1.24 1.24 0 0 1-.456-1.48l3.865-9.746c-4.215-.296-7.473-3.638-7.462-7.656V43.66c0-2.075.884-4.062 2.452-5.505 1.57-1.443 3.687-2.22 5.868-2.15h23.62c2.306.015 4.503.94 6.065 2.552 1.365 1.373 2.083 3.216 1.986 5.103v10.205c-.034 2.064-.93 4.03-2.49 5.466s-3.658 2.224-5.83 2.19H50.346l-14.682 11.2c-.236.18-.53.28-.832.28zm3.49-34.444a5.53 5.53 0 0 0-3.97 1.4c-1.066.966-1.668 2.304-1.666 3.703v10.204c.035 1.388.65 2.705 1.706 3.662a5.664 5.664 0 0 0 3.93 1.44h1.074c.458-.03.9.167 1.172.518.272.352.336.81.17 1.218l-2.9 7.093 11.193-8.547c.236-.18.53-.28.832-.28h11.81a5.664 5.664 0 0 0 3.93-1.442c1.057-.957 1.67-2.274 1.705-3.662V43.66a4.358 4.358 0 0 0-1.26-3.445c-1.07-1.07-2.556-1.67-4.108-1.658H38.32z"/></g></svg>
