<svg xmlns="http://www.w3.org/2000/svg" width="100" height="85" viewBox="0 0 100 85"><g fill="none" fill-rule="evenodd"><rect width="413" height="442" x=".5" y=".5" stroke="#DDD" rx="6" transform="translate(-157 -20)"/><path stroke="#D6EDF5" stroke-linecap="round" stroke-linejoin="round" stroke-width="6.358" d="M23.886 13.3h49.602v68.14H23.886z"/><path stroke="#2792D1" stroke-linecap="round" stroke-linejoin="round" stroke-width="1.967" d="M21.92 11.157h53.536v72.795H21.92z"/><path stroke="#2792D1" stroke-linecap="round" stroke-linejoin="round" stroke-width="1.967" d="M35.18 16.76h27.99a1.916 1.916 0 0 0 1.41-.66c.358-.41.524-.954.46-1.494l-.618-5.12a1.922 1.922 0 0 0-1.626-1.68l-6.334-.817a1.916 1.916 0 0 1-1.113-.547L54.055 5.18a6.903 6.903 0 0 0-9.17-.548L42.74 6.32a1.915 1.915 0 0 1-1 .4l-6.106.62a1.92 1.92 0 0 0-1.715 1.63l-.644 5.612c-.072.55.095 1.104.46 1.52.364.418.89.657 1.443.657z"/><path stroke="#209DD9" stroke-linecap="round" stroke-linejoin="round" stroke-width="2.52" d="M47.374 25.59H66.26M47.374 31.49H66.26m-18.886 5.896H66.26M47.374 43.29H66.26m-18.886 5.895H66.26M47.374 55.08H66.26m-18.886 5.897H66.26m-18.886 5.905H66.26M30.967 30.558l2.96 4.942 8.13-8.163M29.984 45.384l2.463 4.95 8.626-9.15M29.243 58.49l3.692 6.182 7.886-8.906"/><path fill="#FECA36" fill-rule="nonzero" d="M21.423 55.644a.924.924 0 0 1-.923-.926c0-.51.413-.925.923-.925.593 0 1.195-.04 1.788-.09a.923.923 0 1 1 .14 1.843c-.626.05-1.26.082-1.887.098h-.04zm-4.586-.36h-.178l-.676-.146a13.57 13.57 0 0 1-1.22-.35.937.937 0 0 1 .586-1.778c.352.12.71.223 1.073.31l.593.13a.92.92 0 0 1-.18 1.835zm10.992-.252a.92.92 0 1 1-.123-1.835l1.813-.26a.923.923 0 1 1 .276 1.827l-1.837.268h-.13zm6.357-1.044a.922.922 0 1 1-.163-1.794l1.797-.36a.924.924 0 0 1 .375 1.81l-1.82.37-.188-.026zm-23.146-1.37a.917.917 0 0 1-.585-.212 10.976 10.976 0 0 1-1.422-1.42.926.926 0 0 1 .55-1.5.92.92 0 0 1 .864.32c.36.43.756.824 1.187 1.18a.923.923 0 0 1-.593 1.632zm29.448 0a.92.92 0 1 1-.228-1.82l1.764-.463a.92.92 0 0 1 .893.234.928.928 0 0 1-.405 1.55l-1.797.474a.9.9 0 0 1-.227-.008v.032zm6.195-1.794a.922.922 0 1 1-.285-1.802l1.732-.587a.925.925 0 0 1 .61 1.745l-1.764.595a.916.916 0 0 1-.293.016v.034zm6.057-2.226a.922.922 0 0 1-.35-1.778l1.683-.71a.92.92 0 0 1 1.212.48.925.925 0 0 1-.48 1.217l-1.716.725a.924.924 0 0 1-.358.033l.008.033zM7.837 47.17a.92.92 0 0 1-.91-.774 10.413 10.413 0 0 1-.138-1.688v-.327a.907.907 0 0 1 .95-.896.917.917 0 0 1 .894.954v.26c0 .47.038.935.114 1.396a.924.924 0 0 1-.756 1.06l-.155.016zm50.756-1.296a.922.922 0 0 1-.423-1.745c.543-.28 1.085-.55 1.627-.817a.923.923 0 0 1 1.252.375.928.928 0 0 1-.375 1.256c-.542.3-1.084.59-1.626.873a.916.916 0 0 1-.457.05v.007zm5.635-3.197a.923.923 0 0 1-.496-1.704 91.2 91.2 0 0 0 1.52-.996.918.918 0 0 1 1.43.705.924.924 0 0 1-.406.83c-.542.347-1.062.686-1.56 1.02a.917.917 0 0 1-.488.145zm-55.52-1.835a.924.924 0 0 1-.862-1.256c.22-.57.48-1.166.772-1.762a.917.917 0 0 1 1.164-.296.923.923 0 0 1 .462 1.112 18.678 18.678 0 0 0-.707 1.63.92.92 0 0 1-.83.57zm60.772-1.876a.923.923 0 0 1-.57-1.63c.478-.37.95-.75 1.415-1.143a.918.918 0 0 1 1.497.553.925.925 0 0 1-.318.866c-.482.397-.967.79-1.455 1.175a.917.917 0 0 1-.57.18zM11.756 35.15a.924.924 0 0 1-.772-1.435c.35-.53.7-1.045 1.05-1.55a.918.918 0 0 1 1.28-.233c.417.29.52.866.23 1.285-.34.49-.682.995-1.024 1.508a.918.918 0 0 1-.764.425zm62.602-.433a.924.924 0 0 1-.65-1.582c.428-.424.845-.856 1.25-1.297a.918.918 0 0 1 1.302-.048.925.925 0 0 1 .05 1.304A44.1 44.1 0 0 1 75 34.448a.917.917 0 0 1-.675.27h.033zm4.21-4.893a.924.924 0 0 1-.74-1.468c.354-.484.692-.98 1.018-1.484a.918.918 0 0 1 1.272-.273.925.925 0 0 1 .272 1.275c-.34.544-.7 1.066-1.073 1.566a.918.918 0 0 1-.78.392l.032-.008zm3.253-5.578a.908.908 0 0 1-.365-.082.92.92 0 0 1-.47-1.215 25.2 25.2 0 0 0 .65-1.63.92.92 0 1 1 1.74.61 22.59 22.59 0 0 1-.708 1.786.918.918 0 0 1-.887.538l.04-.008zm1.74-6.198h-.113a.918.918 0 0 1-.813-1.028c.073-.587.114-1.174.13-1.753a.924.924 0 0 1 .947-.9c.51.012.913.438.9.95 0 .635-.065 1.287-.138 1.923a.92.92 0 0 1-.952.816l.04-.008zM8.546 60.12a.892.892 0 0 1-.22 0 14.43 14.43 0 0 1-1.878-.586.925.925 0 0 1-.52-1.2.92.92 0 0 1 1.195-.52 12.5 12.5 0 0 0 1.626.52.92.92 0 0 1-.22 1.82l.017-.033zm-5.69-2.967a.917.917 0 0 1-.627-.245 7.424 7.424 0 0 1-1.35-1.63.928.928 0 0 1 .31-1.273.92.92 0 0 1 1.267.31c.28.448.623.854 1.017 1.207a.923.923 0 0 1-.626 1.63h.008zm-1.936-5.89A.917.917 0 0 1 0 50.32c0-.628.057-1.272.114-1.916a.917.917 0 1 1 1.45-.66.923.923 0 0 1 .38.84 21.94 21.94 0 0 0-.107 1.777.92.92 0 0 1-.918.904zm.99-6.41a.924.924 0 0 1-.885-1.182 23.79 23.79 0 0 1 .6-1.817.92.92 0 1 1 1.725.644c-.204.555-.39 1.126-.553 1.69a.92.92 0 0 1-.886.667zm2.57-5.91a.918.918 0 0 1-.824-.46.924.924 0 0 1 .01-.944c.326-.547.684-1.086 1.05-1.632A.92.92 0 0 1 6 35.688a.926.926 0 0 1 .22 1.288c-.342.48-.667.98-.968 1.485a.92.92 0 0 1-.772.514v-.032zm80.845-.768a.923.923 0 0 1-.618-1.63c.445-.41.878-.825 1.3-1.25a.918.918 0 0 1 1.3 0c.36.36.36.946 0 1.306-.443.447-.898.88-1.364 1.306a.917.917 0 0 1-.618.27zm4.39-4.73a.924.924 0 0 1-.724-1.5c.376-.474.736-.955 1.083-1.444a.92.92 0 0 1 1.587.16c.135.3.1.65-.09.917a43.89 43.89 0 0 1-1.14 1.51.918.918 0 0 1-.715.35v.008zM93.3 28.08a.918.918 0 0 1-.805-.453.924.924 0 0 1-.007-.926c.292-.543.563-1.087.813-1.63a.917.917 0 0 1 1.165-.297.923.923 0 0 1 .462 1.112 48.237 48.237 0 0 1-.886 1.63.92.92 0 0 1-.74.564zm2.724-5.857a.924.924 0 0 1-.862-1.248c.212-.543.413-1.11.602-1.704a.92.92 0 1 1 1.748.58c-.195.598-.404 1.19-.626 1.778a.92.92 0 0 1-.862.595zm1.822-6.198h-.196a.922.922 0 0 1-.707-1.093c.125-.587.24-1.18.342-1.777a.92.92 0 1 1 1.813.31c-.103.62-.22 1.236-.35 1.85a.92.92 0 0 1-.902.71zm.853-6.402h-.05a.918.918 0 0 1-.87-.97c.033-.604.052-1.204.057-1.803a.92.92 0 0 1 .92-.913.917.917 0 0 1 .91.938c0 .63-.022 1.26-.065 1.884a.92.92 0 0 1-.903.863zm-.163-6.46a.92.92 0 0 1-.91-.814c-.044-.43-.1-.86-.164-1.29a.923.923 0 0 1 .35-.852.916.916 0 0 1 1.472.608c.065.45.12.9.162 1.345a.924.924 0 0 1-.813 1.02l-.097-.016z"/></g></svg>
