<svg xmlns="http://www.w3.org/2000/svg" width="39" height="40" viewBox="0 0 39 40"><g fill="none" fill-rule="evenodd"><rect width="100" height="100" rx="50" transform="translate(-31 -30)"/><g fill="#FFF" fill-rule="nonzero"><path d="M19.43 39.286C8.713 39.286 0 30.57 0 19.856 0 9.144 8.714.43 19.43.43c10.713 0 19.427 8.714 19.427 19.428s-8.57 19.428-19.427 19.428zm0-36.572C10 2.714 2.285 10.43 2.285 19.857 2.286 29.287 10 37 19.43 37c9.427 0 17.14-7.714 17.14-17.143 0-9.428-7.713-17.143-17.14-17.143z"/><path d="M19.43 38.143c-.716 0-1.144-.43-1.144-1.143V2.714c0-.714.428-1.143 1.143-1.143.713 0 1.14.43 1.14 1.144v34.43c0 .57-.427 1-1.14 1z"/><path d="M36.57 21H2.287c-.715 0-1.143-.43-1.143-1.143s.428-1.143 1.143-1.143h34.57c.715 0 1.144.43 1.144 1.143S37.286 21 36.57 21z"/><path d="M17.143 38.857C11.857 37 8 29.287 8 19.857c0-9.57 3.857-17.428 9.143-19l3.428.714c0 .716-.427 1.144-1.14 1.144-5 0-9.144 7.715-9.144 17.143C10.286 29.287 14.43 37 19.43 37c.713 0 1.14.43 1.14 1.143l-3.427.714z"/><path d="M18.286 38.143c0-.714.428-1.143 1.143-1.143 5 0 9.14-7.714 9.14-17.143 0-9.428-4.14-17.143-9.14-17.143-.716 0-1.144-.428-1.144-1.143l3-.856c5.428 1.43 9.57 9.43 9.57 19.143 0 9.572-3.856 17.43-9.142 19l-3.428-.714z"/></g></g></svg>
