<svg xmlns="http://www.w3.org/2000/svg" width="16" height="20" viewBox="0 0 16 20"><g fill="none" fill-rule="evenodd"><rect width="824" height="442" x=".5" y=".5" stroke="#DDD" rx="6" transform="translate(-353 -284)"/><rect width="355" height="46" x=".5" y="28.5" stroke="#DDD" rx="6" transform="translate(-324 -42)"/><g fill="#717980" fill-rule="nonzero"><path d="M8.742 13.087h-.816c-.743 0-1.337-.43-1.56-1.005l-.222-.79c-.15-.215 0-.574.148-.79.15-.215.446-.358.743-.358h2.747c.223 0 .594.143.742.36.15.214.223.573.15.79l-.224.79c-.52.644-1.114 1.003-1.708 1.003zm-1.41-1.866l.148.43c0 .145.223.217.372.217h.816c.15 0 .37-.144.37-.216l.15-.43H7.332z"/><path d="M9.336 12.37l1.188 5.025c0 .215 0 .43-.222.574l-1.634 1.004c-.148.144-.223.144-.37.144-.15 0-.224 0-.372-.144L6.292 17.97c-.222-.143-.37-.36-.222-.574l1.188-5.026h2.078zm-2.004 5.097l.965.718.965-.718-.965-4.164-.965 4.164zM8.223 11.005c-2.6 0-4.752-2.297-4.752-5.17 0-2.87 2.154-5.168 4.753-5.168 2.598 0 4.75 2.297 4.75 5.17 0 2.87-2.078 5.17-4.75 5.17zm0-9.19c-2.005 0-3.564 1.867-3.564 4.02 0 2.155 1.56 4.02 3.563 4.02s3.563-1.865 3.563-4.02c0-2.153-1.484-4.02-3.563-4.02z"/><path d="M15.35 18.83c-.37 0-.594-.215-.594-.574V14.38c0-2.153-1.782-3.876-4.01-3.876h-.444c-.372 0-.594-.216-.594-.575s.222-.575.594-.575h.445c2.82 0 5.197 2.297 5.197 5.025v3.877c0 .36-.223.575-.594.575zm-14.255 0c-.37 0-.593-.215-.593-.574V14.38c0-2.728 2.375-5.025 5.196-5.025h.446c.37 0 .594.215.594.574 0 .36-.223.574-.594.574h-.37c-2.23 0-4.01 1.723-4.01 3.876v3.877c-.075.36-.297.575-.67.575z"/></g></g></svg>
