<svg xmlns="http://www.w3.org/2000/svg" width="18" height="18" viewBox="0 0 18 18"><path d="M4.125 4.42h-2.53c-.395 0-.633-.233-.633-.62V1.32c0-.387.238-.62.633-.62h2.53c.395 0 .632.233.632.62V3.8c0 .31-.316.62-.632.62zM2.227 3.18h1.265V1.94H2.227v1.24zm8.222 1.24H7.92c-.396 0-.633-.233-.633-.62V1.32c0-.387.237-.62.632-.62h2.53c.394 0 .63.233.63.62V3.8c0 .31-.315.62-.63.62zm-1.9-1.24h1.265V1.94H8.55v1.24zm8.223 1.24h-2.53c-.395 0-.632-.233-.632-.62V1.32c0-.387.238-.62.633-.62h2.53c.395 0 .632.233.632.62V3.8c0 .31-.316.62-.632.62zm-1.898-1.24h1.265V1.94h-1.265v1.24zm-10.75 7.438h-2.53c-.395 0-.633-.233-.633-.62v-2.48c0-.387.238-.62.633-.62h2.53c.395 0 .632.233.632.62v2.48c0 .31-.316.62-.632.62zm-1.898-1.24h1.265v-1.24H2.227v1.24zm8.222 1.24H7.92c-.396 0-.633-.233-.633-.62v-2.48c0-.387.237-.62.632-.62h2.53c.394 0 .63.233.63.62v2.48c0 .31-.315.62-.63.62zm-1.9-1.24h1.265v-1.24H8.55v1.24zm8.223 1.24h-2.53c-.395 0-.632-.233-.632-.62v-2.48c0-.387.238-.62.633-.62h2.53c.395 0 .632.233.632.62v2.48c0 .31-.316.62-.632.62zm-1.898-1.24h1.265v-1.24h-1.265v1.24zm-10.75 7.438h-2.53c-.395 0-.633-.232-.633-.62v-2.48c0-.386.238-.62.633-.62h2.53c.395 0 .632.234.632.62v2.48c0 .31-.316.62-.632.62zm-1.898-1.24h1.265v-1.24H2.227v1.24zm8.222 1.24H7.92c-.396 0-.633-.232-.633-.62v-2.48c0-.386.237-.62.632-.62h2.53c.394 0 .63.234.63.62v2.48c0 .31-.315.62-.63.62zm-1.9-1.24h1.266v-1.24H8.55v1.24zm6.958 1.705c-.158 0-.395-.154-.474-.154l-1.74-1.86a.6.6 0 0 1 0-.852l1.74-1.704a.63.63 0 0 1 .87 0l1.738 1.704a.6.6 0 0 1 0 .853l-1.74 1.704c-.078.31-.315.31-.394.31zm-.95-2.323l.87.852.87-.853-.87-.853-.87.853z" fill="#377FEA" fill-rule="nonzero"/></svg>
