<svg xmlns="http://www.w3.org/2000/svg" width="19" height="14" viewBox="0 0 19 14"><g fill="none" fill-rule="evenodd"><rect width="824" height="442" x=".5" y=".5" stroke="#DDD" rx="6" transform="translate(-351 -171)"/><rect width="355" height="46" x=".5" y=".5" stroke="#DDD" rx="6" transform="translate(-322 -17)"/><g fill="#717980" fill-rule="nonzero"><path d="M15.67 13.72H3.915c-1.66 0-2.973-1.33-2.973-3.01V3.22C.942 1.54 2.257.21 3.916.21h11.822c1.66 0 2.973 1.33 2.973 3.01v7.49c0 1.61-1.382 3.01-3.04 3.01zM3.984 1.4c-.968 0-1.866.91-1.866 1.89v7.49c0 .98.898 1.89 1.866 1.89h11.822c.968 0 1.867-.91 1.867-1.89V3.29c0-.98-.9-1.89-1.867-1.89H3.986z"/><path d="M18.435 4.06L11.59 8.12c-.415.35-1.106.42-1.797.42-.692 0-1.245-.14-1.798-.42L1.15 4.06l.554-.98 6.844 4.06c.692.35 1.798.35 2.35 0l6.845-4.06.692.98z"/><path d="M2.19 12.743l-.857-.7 4.824-5.91.857.698zm15.27.046l-4.766-5.84.868-.708 4.766 5.837z"/></g></g></svg>
