<svg xmlns="http://www.w3.org/2000/svg" width="40" height="34" viewBox="0 0 40 34"><g fill="none" fill-rule="evenodd"><rect width="100" height="100" rx="50" transform="translate(-30 -33)"/><path fill="#FFF" d="M36.842 31.47V11.483h1.58c.726 0 1.315-.566 1.315-1.265V8.953a1.26 1.26 0 0 0-.79-1.265L20 0C20.198-.033.816 7.536.816 7.536A1.266 1.266 0 0 0 0 8.7v1.518c0 .7.59 1.265 1.316 1.265h1.842V31.47H1.316C.59 31.47 0 32.036 0 32.735S.59 34 1.316 34h37.368C39.41 34 40 33.434 40 32.735s-.59-1.265-1.316-1.265h-1.842zM26.316 11.736V31.47h-5V11.736h5zM18.684 31.47h-5V11.736h5V31.47zm-7.63 0H5.788V11.736h5.263V31.47zm23.157 0h-5.263V11.736h5.264V31.47zM2.858 8.5L20 2.833 34.286 8.5H2.856z"/></g></svg>
