<svg xmlns="http://www.w3.org/2000/svg" width="19" height="21" viewBox="0 0 19 21"><g fill="#377FEA" fill-rule="nonzero"><path d="M9.355 17.148c-4.22 0-8.728-.95-8.728-2.922 0-.366.218-.585.582-.585.945 0 1.745-.802 1.745-1.752V9.55c0-3.506 2.91-6.428 6.4-6.428s6.4 2.922 6.4 6.428v2.338c0 .95.8 1.753 1.745 1.753.364 0 .582.22.582.586 0 1.972-4.51 2.922-8.727 2.922zm-7.2-2.484c.945.584 3.272 1.315 7.2 1.315 3.927 0 6.254-.73 7.2-1.316-1.164-.365-1.964-1.534-1.964-2.776V9.55a5.226 5.226 0 0 0-5.235-5.26 5.226 5.226 0 0 0-5.237 5.26v2.338c0 1.242-.8 2.338-1.963 2.776z"/><path d="M9.355 20.07c-1.964 0-3.49-1.534-3.49-3.507 0-.365.217-.584.58-.584.364 0 .582.22.582.583 0 1.315 1.018 2.338 2.328 2.338 1.31 0 2.327-1.022 2.327-2.337 0-.365.218-.584.582-.584.363 0 .58.22.58.583 0 1.973-1.453 3.507-3.49 3.507zM8.773 3.706V1.37c0-.366.218-.585.582-.585.363 0 .58.22.58.585v2.337H8.774z"/></g></svg>
