<svg xmlns="http://www.w3.org/2000/svg" width="310" height="55" viewBox="0 0 310 55"><defs><linearGradient id="a" x1="0%" x2="99.998%" y1="50%" y2="50%"><stop offset="0%" stop-color="#5B2B82"/><stop offset="100%" stop-color="#00A0DD"/></linearGradient></defs><g fill="none" fill-rule="evenodd"><path fill="#5D2D80" d="M277.33 38.773h-.252a15.184 15.184 0 0 1-4.234 3.674l.053.127c3.62-.42 7.273-.44 10.897-.06l.034-.12c-2.336-.774-5.27-2.278-6.497-3.62zm30.69-13.56c0-.156 1.007-4.98 1.002-6.844 0-4.435.048-8.606-2.774-12.077-3.713-4.57-10.39-7.597-20.62-4.833-10.23 2.765-14.463 8.76-15.36 14.602-.68 4.424 2.673 9.01 2.693 9.165a5 5 0 0 0 2.06 8.673l.03.117c.144.346 3.72 7.934 15.44 7.934 11.72 0 15.29-7.587 15.442-7.933V33.9A4.998 4.998 0 0 0 308 25.227l.02-.015zm-3.446-5.84a16.548 16.548 0 0 1-2.88 3.737 24.687 24.687 0 0 1-8.883 4.896 24.67 24.67 0 0 1-10.13.258 16.613 16.613 0 0 1-4.38-1.772c-3.12-2.092-4.867-7.3-4.142-11.56a10.3 10.3 0 0 1 2.618-4.96c2.117-2.136 6.03-3.002 8.624-2.48.564.116 2.01.607 2.01.607s1.002-1.16 1.43-1.544c1.976-1.762 5.796-2.988 8.697-2.214A10.307 10.307 0 0 1 302.31 7.3c2.788 3.31 3.903 8.673 2.268 12.056l-.005.015zm-10.045-5.32c-1.947 2.01-3.038 5.246-3.407 7.762-1.572-1.996-4.142-4.24-6.843-4.994-2.78-.768-6.696 1.213-7.056 4.007.92.754 3.995 1.49 6.326.735 1.46-.487 2.224-1.597 3.134-2.507a26.91 26.91 0 0 1 5.27 5.84c.158-2.63.7-5.22 1.607-7.694 1.24.322 2.434.91 3.97.58 2.39-.526 4.674-2.71 5.087-3.83-1.693-2.235-6.078-1.967-8.088.102zm9.367 24.72h-.253c-1.22 1.343-4.16 2.847-6.497 3.616l.034.12a49.466 49.466 0 0 1 10.898.06l.053-.128a15.262 15.262 0 0 1-4.233-3.67z"/><path fill="url(#a)" fill-rule="nonzero" d="M16.118 38.592a6.37 6.37 0 0 1-2.136 2.19 9.796 9.796 0 0 1-2.998 1.222 14.598 14.598 0 0 1-3.33.39 21.04 21.04 0 0 1-3.66-.33 17.897 17.897 0 0 1-3.55-1L0 40.4V38.45a.974.974 0 0 1 .33-.75c.21-.198.49-.308.78-.305.366.026.724.12 1.056.278.444.185.962.387 1.552.608.59.22 1.228.424 1.913.61a8.13 8.13 0 0 0 2.137.277 10.102 10.102 0 0 0 1.947-.195 6.005 6.005 0 0 0 1.83-.667A3.996 3.996 0 0 0 12.9 37.06c.364-.56.547-1.22.526-1.888a3.208 3.208 0 0 0-.998-2.434 10.56 10.56 0 0 0-2.467-1.694c-.972-.5-2.045-.986-3.216-1.46a15.69 15.69 0 0 1-3.217-1.718 9.247 9.247 0 0 1-2.472-2.555 6.907 6.907 0 0 1-1.002-3.835 5.978 5.978 0 0 1 .695-2.978A5.84 5.84 0 0 1 2.61 16.5a8.243 8.243 0 0 1 2.66-1.14c1-.24 2.025-.36 3.053-.36 2.402 0 4.792.336 7.1 1l.33.442c.114.15.207.313.278.486v1.568c-.01.25-.095.49-.247.69a.75.75 0 0 1-.637.36c-.56 0-1.12-.065-1.665-.194-.553-.13-1.118-.277-1.692-.443-.574-.166-1.147-.328-1.718-.487a6.997 6.997 0 0 0-1.747-.224 10.37 10.37 0 0 0-1.635.135 4.7 4.7 0 0 0-1.553.526 3.494 3.494 0 0 0-1.14.998 2.672 2.672 0 0 0-.44 1.61 3.364 3.364 0 0 0 .996 2.528 10.035 10.035 0 0 0 2.47 1.718c.972.5 2.044.986 3.215 1.46a15.786 15.786 0 0 1 3.217 1.718 9.3 9.3 0 0 1 2.468 2.55c.703 1.16 1.05 2.5.997 3.855a6.377 6.377 0 0 1-.798 3.295zm27.155.974l-.277.608a15.864 15.864 0 0 1-4.355 1.684 20.704 20.704 0 0 1-4.632.555c-1.96.06-3.91-.31-5.714-1.08a9.792 9.792 0 0 1-3.77-2.998 12.232 12.232 0 0 1-2.08-4.522 23.755 23.755 0 0 1-.642-5.68 18.01 18.01 0 0 1 .75-5.354 11.35 11.35 0 0 1 2.267-4.163 10.093 10.093 0 0 1 3.8-2.69 14.004 14.004 0 0 1 5.383-.946c1.383.002 2.765.113 4.13.332 1.362.215 2.693.588 3.968 1.11l.443.667v1.83a1.07 1.07 0 0 1-.277.75.93.93 0 0 1-.72.305 4.793 4.793 0 0 1-1.416-.277l-1.88-.61a36.29 36.29 0 0 0-2.106-.607 8.598 8.598 0 0 0-2.136-.276 9.05 9.05 0 0 0-3.894.778 7.704 7.704 0 0 0-2.72 2.108 8.513 8.513 0 0 0-1.6 3.13c-.338 1.27-.5 2.58-.488 3.893a18.858 18.858 0 0 0 .443 4.108 9.896 9.896 0 0 0 1.503 3.54 8.186 8.186 0 0 0 2.69 2.467 8.053 8.053 0 0 0 4.08.945 9.576 9.576 0 0 0 2.637-.39c.905-.26 1.765-.537 2.58-.832a29.803 29.803 0 0 0 2.082-.832c.356-.19.74-.322 1.14-.39.332.146.585.43.69.78.094.343.142.698.14 1.055l-.02 1.003zm27.073 2.025c-.112.132-.224.25-.33.36l-.444.225h-1.39a1.878 1.878 0 0 1-.668-.414c-.2-.17-.352-.39-.443-.637V24.745c0-2.145-.684-3.735-2.053-4.77a8.126 8.126 0 0 0-5.046-1.552 8.73 8.73 0 0 0-2.66.442c-.924.296-1.8.717-2.61 1.25a7.135 7.135 0 0 0-1.995 1.948c-.52.76-.79 1.66-.78 2.58v16.47a1.548 1.548 0 0 1-.442.638c-.19.185-.418.325-.666.415H49.43l-.443-.224a4.76 4.76 0 0 1-.33-.36 1.645 1.645 0 0 1-.28-.486V1.164c.066-.177.16-.342.28-.487.11-.127.223-.25.33-.36l.443-.225h1.387c.248.09.475.23.666.414.2.172.352.39.443.638V18.31a9.358 9.358 0 0 1 3.69-2.356 13.065 13.065 0 0 1 4.355-.75c1.46-.016 2.914.16 4.327.526a8.857 8.857 0 0 1 3.348 1.694 7.753 7.753 0 0 1 2.19 2.97c.552 1.383.817 2.865.78 4.355v16.363a1.68 1.68 0 0 1-.27.472v.005zm29.6-7.49a11.847 11.847 0 0 1-2.303 4.35 10.896 10.896 0 0 1-3.894 2.888c-1.736.74-3.61 1.1-5.495 1.056a13.727 13.727 0 0 1-5.523-1.022 10.672 10.672 0 0 1-3.937-2.887 12.212 12.212 0 0 1-2.356-4.38 18.673 18.673 0 0 1-.78-5.52c-.02-1.915.232-3.824.745-5.67a11.24 11.24 0 0 1 2.248-4.273 9.816 9.816 0 0 1 3.894-2.72 17.517 17.517 0 0 1 11.344 0 9.626 9.626 0 0 1 3.855 2.72 11.473 11.473 0 0 1 2.22 4.273c.503 1.844.745 3.75.72 5.66a19.355 19.355 0 0 1-.74 5.52v.005zm-3.247-10.158a7.642 7.642 0 0 0-1.5-3.08 6.867 6.867 0 0 0-2.745-1.948 11.09 11.09 0 0 0-4.19-.69 10.063 10.063 0 0 0-4.16.778 7.3 7.3 0 0 0-2.804 2.166 9.32 9.32 0 0 0-1.61 3.3 16.147 16.147 0 0 0 0 8.186 9.34 9.34 0 0 0 1.664 3.408 8.37 8.37 0 0 0 2.838 2.253 8.76 8.76 0 0 0 4.02.862 8.88 8.88 0 0 0 4.214-.915 7.485 7.485 0 0 0 2.744-2.434 10.61 10.61 0 0 0 1.5-3.553c.323-1.392.487-2.816.486-4.244a17.13 17.13 0 0 0-.457-4.088zm33.37 10.153a11.847 11.847 0 0 1-2.303 4.356 10.896 10.896 0 0 1-3.894 2.888c-1.735.74-3.608 1.1-5.494 1.056a13.727 13.727 0 0 1-5.51-1.022 10.672 10.672 0 0 1-3.937-2.887 12.212 12.212 0 0 1-2.355-4.38 18.673 18.673 0 0 1-.78-5.52 20.4 20.4 0 0 1 .72-5.66 11.24 11.24 0 0 1 2.25-4.274 9.816 9.816 0 0 1 3.893-2.72 17.517 17.517 0 0 1 11.345 0 9.626 9.626 0 0 1 3.854 2.72 11.473 11.473 0 0 1 2.22 4.275c.502 1.844.745 3.75.72 5.66a19.355 19.355 0 0 1-.73 5.51zm-3.247-10.153a7.642 7.642 0 0 0-1.5-3.08 6.867 6.867 0 0 0-2.744-1.948 11.09 11.09 0 0 0-4.19-.69 10.063 10.063 0 0 0-4.162.778 7.3 7.3 0 0 0-2.784 2.136 9.32 9.32 0 0 0-1.61 3.3 16.147 16.147 0 0 0 0 8.187 9.34 9.34 0 0 0 1.664 3.407 8.37 8.37 0 0 0 2.827 2.303 8.76 8.76 0 0 0 4.02.86 8.88 8.88 0 0 0 4.214-.914 7.485 7.485 0 0 0 2.744-2.433 10.61 10.61 0 0 0 1.5-3.553c.323-1.39.486-2.815.486-4.244a17.13 17.13 0 0 0-.467-4.108zm23.525 17.284a6.68 6.68 0 0 1-2.137.886c-.753.18-1.525.272-2.3.277-2.035 0-3.634-.446-4.8-1.335a8.09 8.09 0 0 1-2.608-3.407 14.978 14.978 0 0 1-1.056-4.604 63.403 63.403 0 0 1-.194-4.867V1.057a1.68 1.68 0 0 1 .277-.488c.11-.13.22-.25.33-.36l.448-.21h1.362c.23.107.437.257.61.443.184.172.335.38.442.608 0 4.544-.01 9.066-.03 13.566-.02 4.5-.03 9.023-.03 13.565 0 .926.03 2.018.084 3.277.06 1.214.256 2.417.584 3.587a7.184 7.184 0 0 0 1.523 2.92 3.854 3.854 0 0 0 3.05 1.193c.483.012.963-.064 1.418-.224.35-.124.685-.287.998-.487.28-.184.52-.347.72-.486.2-.148.443-.226.692-.224a.696.696 0 0 1 .608.33c.154.237.258.502.306.78.057.31.085.627.083.944v.72l-.38.716zm19.724-2.638a6.37 6.37 0 0 1-2.137 2.19A9.796 9.796 0 0 1 164.938 42a14.598 14.598 0 0 1-3.33.39 21.04 21.04 0 0 1-3.66-.332 17.897 17.897 0 0 1-3.55-.998l-.444-.662V38.45a.974.974 0 0 1 .33-.75c.21-.198.49-.308.78-.305.365.026.724.12 1.055.278.444.185.96.387 1.552.608.59.22 1.228.424 1.912.61a8.13 8.13 0 0 0 2.137.277 10.102 10.102 0 0 0 1.947-.195 6.005 6.005 0 0 0 1.83-.667 3.996 3.996 0 0 0 1.358-1.246c.363-.562.547-1.22.526-1.89a3.208 3.208 0 0 0-.997-2.433 10.56 10.56 0 0 0-2.467-1.694c-.974-.5-2.046-.986-3.217-1.46a15.69 15.69 0 0 1-3.218-1.718 9.247 9.247 0 0 1-2.477-2.555 6.907 6.907 0 0 1-.998-3.855 5.978 5.978 0 0 1 .69-2.96 5.84 5.84 0 0 1 1.86-1.995 8.243 8.243 0 0 1 2.662-1.14c1-.24 2.023-.36 3.05-.36 2.397-.005 4.78.325 7.086.98l.33.442c.114.15.207.314.28.487v1.586c-.01.25-.098.49-.25.69a.75.75 0 0 1-.637.36c-.56 0-1.12-.065-1.665-.194-.555-.13-1.12-.277-1.694-.443-.573-.166-1.146-.328-1.717-.487a6.997 6.997 0 0 0-1.747-.224 10.37 10.37 0 0 0-1.635.135 4.7 4.7 0 0 0-1.552.526 3.494 3.494 0 0 0-1.138.998 2.672 2.672 0 0 0-.443 1.61 3.364 3.364 0 0 0 .997 2.528 10.035 10.035 0 0 0 2.468 1.718c.973.5 2.045.986 3.217 1.46a15.786 15.786 0 0 1 3.24 1.708 9.3 9.3 0 0 1 2.467 2.55c.704 1.16 1.05 2.5.998 3.856a6.377 6.377 0 0 1-.808 3.304l.005-.004zm27.155-5.773a15.38 15.38 0 0 1-2.72 4.867 13.37 13.37 0 0 1-4.297 3.407 12.413 12.413 0 0 1-5.69 1.275c-.89 0-1.777-.046-2.66-.137a24.004 24.004 0 0 1-2.61-.418v11.68l-.224.443a1.69 1.69 0 0 1-.885.608h-1.386a1.46 1.46 0 0 1-.61-.417 1.79 1.79 0 0 1-.39-.638V16.422c.102-.354.316-.665.61-.886l.39-.165h1.362l.443.166c.305.222.537.53.666.886v1.718a10.804 10.804 0 0 1 3.47-2.33c1.29-.55 2.676-.834 4.078-.833 3.893 0 6.76 1.082 8.6 3.246 1.84 2.164 2.763 5.114 2.773 8.85a17.568 17.568 0 0 1-.925 5.747l.005-.005zm-2.998-9.32a7.535 7.535 0 0 0-1.388-2.804 6.443 6.443 0 0 0-2.433-1.83 8.84 8.84 0 0 0-3.607-.666 6.885 6.885 0 0 0-3.217.72 7.412 7.412 0 0 0-2.355 1.913 7.968 7.968 0 0 0-1.46 2.745 11.01 11.01 0 0 0-.486 3.217v11.72c.84.257 1.705.433 2.58.525.876.094 1.756.14 2.637.142a9.022 9.022 0 0 0 4.38-1.027 9.904 9.904 0 0 0 3.19-2.746 11.99 11.99 0 0 0 1.945-3.893c.428-1.44.646-2.932.647-4.433a13.66 13.66 0 0 0-.433-3.578v-.006zm33.257 10.595a11.847 11.847 0 0 1-2.3 4.36 10.896 10.896 0 0 1-3.895 2.888c-1.735.74-3.608 1.1-5.494 1.056a13.727 13.727 0 0 1-5.51-1.022 10.672 10.672 0 0 1-3.946-2.89 12.213 12.213 0 0 1-2.355-4.382 18.673 18.673 0 0 1-.78-5.52 20.4 20.4 0 0 1 .72-5.66 11.24 11.24 0 0 1 2.25-4.274 9.816 9.816 0 0 1 3.893-2.72 17.517 17.517 0 0 1 11.344 0 9.626 9.626 0 0 1 3.854 2.72 11.473 11.473 0 0 1 2.22 4.274c.514 1.84.768 3.744.754 5.656a19.355 19.355 0 0 1-.755 5.52v-.006zm-3.246-10.153a7.642 7.642 0 0 0-1.497-3.08 6.867 6.867 0 0 0-2.745-1.948 11.09 11.09 0 0 0-4.19-.69 10.063 10.063 0 0 0-4.16.762 7.3 7.3 0 0 0-2.804 2.166 9.32 9.32 0 0 0-1.61 3.3 16.147 16.147 0 0 0 0 8.187 9.34 9.34 0 0 0 1.663 3.407 8.37 8.37 0 0 0 2.828 2.302 8.76 8.76 0 0 0 4.02.862 8.88 8.88 0 0 0 4.224-.95 7.485 7.485 0 0 0 2.743-2.433 10.61 10.61 0 0 0 1.5-3.553c.323-1.392.487-2.816.486-4.244a17.13 17.13 0 0 0-.46-4.084v-.005zm26.076 16.174l-.33.61a9.557 9.557 0 0 1-2.998 1.25c-1.072.268-2.17.407-3.275.414a8.535 8.535 0 0 1-3.553-.638 5.353 5.353 0 0 1-2.19-1.776 6.893 6.893 0 0 1-1.11-2.72 18.615 18.615 0 0 1-.306-3.525V19.47h-3.275l-.658-.55-.224-.487v-1.23l.165-.39c.222-.307.53-.54.886-.667h3.104c.074-1.185.112-2.37.112-3.553 0-1.185.018-2.387.053-3.607.14-.18.305-.345.486-.487.175-.15.372-.27.584-.36h1.275l.667.554.277.487v6.966h8.652c.202.13.38.295.525.486.15.176.27.373.36.584v1.222a2.433 2.433 0 0 1-1.06 1.032H240v14.26c0 .632.047 1.263.14 1.89.086.608.274 1.2.555 1.746.265.523.657.97 1.14 1.304a3.14 3.14 0 0 0 1.83.487 5.683 5.683 0 0 0 1.804-.307c.61-.204 1.174-.417 1.693-.637.52-.22.972-.433 1.358-.638.246-.153.52-.257.804-.306.364-.05.716.148.86.485.13.316.177.66.142.998l-.01 1.358z"/></g></svg>
