<svg xmlns="http://www.w3.org/2000/svg" width="153" height="58" viewBox="0 0 153 58"><g fill="none" fill-rule="evenodd"><path fill="#1D9CD7" d="M15.67 20.422c-.115.126-.225.245-.34.34-2.07.082-4.143.154-6.222.215-2.08.062-4.158.095-6.235.1.017.903.16 1.8.426 2.665.23.78.598 1.512 1.086 2.16a4.865 4.865 0 0 0 1.83 1.447 6.368 6.368 0 0 0 2.704.52 6.51 6.51 0 0 0 1.814-.27 20.1 20.1 0 0 0 1.705-.58c.527-.203.977-.397 1.362-.575.214-.12.444-.213.682-.272.315-.036.6.19.638.504.06.293.09.59.095.89v.57l-.232.425a9.975 9.975 0 0 1-2.935 1.156c-1.024.25-2.073.38-3.126.39a9.743 9.743 0 0 1-4.09-.755 6.535 6.535 0 0 1-2.626-2.103 8.65 8.65 0 0 1-1.384-3.205 18.068 18.068 0 0 1-.426-4.05 11.656 11.656 0 0 1 .538-3.63 7.766 7.766 0 0 1 1.603-2.837 7.227 7.227 0 0 1 2.644-1.834 9.41 9.41 0 0 1 3.634-.658 7.217 7.217 0 0 1 3.41.737 5.84 5.84 0 0 1 2.18 1.987 8.55 8.55 0 0 1 1.157 2.877 16.07 16.07 0 0 1 .34 3.41 1.415 1.415 0 0 1-.235.375zm-2.642-3.846a5.69 5.69 0 0 0-.87-1.68 4.203 4.203 0 0 0-1.39-1.177 4.06 4.06 0 0 0-1.95-.444 5.676 5.676 0 0 0-5.95 5.52h1.198c1.573 0 3.136-.013 4.69-.038a69.095 69.095 0 0 0 4.654-.232 8.284 8.284 0 0 0-.382-1.95z"/><path fill="#418FCD" d="M34.21 29.63c-.124.102-.26.187-.407.252h-.852l-.31-.157a4.333 4.333 0 0 1-.23-.252 1.22 1.22 0 0 1-.195-.34l-.038-1.893a7.77 7.77 0 0 1-2.53 2.086 6.818 6.818 0 0 1-3.183.77 8.81 8.81 0 0 1-3.69-.68 6.5 6.5 0 0 1-2.49-1.934 7.926 7.926 0 0 1-1.41-2.932 14.615 14.615 0 0 1-.442-3.706c0-3.218.766-5.645 2.298-7.282 1.53-1.636 3.933-2.453 7.203-2.45.682 0 1.387.016 2.086.057.7.04 1.39.08 2.082.136V1.344c.163-.314.42-.57.733-.733h.965l.307.155c.082.08.16.164.232.252.082.102.147.217.193.34v27.955a1.96 1.96 0 0 1-.324.318zm-4.174-16.217a36.55 36.55 0 0 0-2.106-.058c-2.473 0-4.27.655-5.387 1.967-1.118 1.31-1.678 3.152-1.68 5.522-.004.896.093 1.79.29 2.663.176.8.502 1.562.96 2.243a4.84 4.84 0 0 0 1.74 1.548c.827.41 1.742.61 2.665.58 1 .042 1.99-.22 2.837-.75a5.175 5.175 0 0 0 1.704-1.992c.43-.882.723-1.824.87-2.795.166-1.028.263-2.066.29-3.11.025-1.04 0-2.044-.04-3.03-.037-.984-.078-1.813-.078-2.508a11.775 11.775 0 0 0-2.066-.28z"/><path fill="#4C80C1" d="M53.978 24.342a8.216 8.216 0 0 1-1.602 3.03 7.56 7.56 0 0 1-2.703 2.01 9.205 9.205 0 0 1-3.822.732 9.59 9.59 0 0 1-3.844-.716 7.445 7.445 0 0 1-2.728-2.008 8.492 8.492 0 0 1-1.64-3.048 12.99 12.99 0 0 1-.54-3.845c-.026-1.334.14-2.664.486-3.952a7.803 7.803 0 0 1 1.575-2.96 6.788 6.788 0 0 1 2.726-1.89 12.2 12.2 0 0 1 7.9 0 6.66 6.66 0 0 1 2.67 1.89 7.933 7.933 0 0 1 1.54 2.96c.353 1.287.523 2.617.504 3.95.013 1.3-.163 2.597-.522 3.847zm-2.26-7.067a5.328 5.328 0 0 0-1.04-2.144 4.814 4.814 0 0 0-1.912-1.363 7.728 7.728 0 0 0-2.915-.48 7.013 7.013 0 0 0-2.893.53 5.062 5.062 0 0 0-1.95 1.508 6.505 6.505 0 0 0-1.122 2.298 11.25 11.25 0 0 0 0 5.696 6.583 6.583 0 0 0 1.16 2.355 5.847 5.847 0 0 0 1.97 1.602c.872.42 1.83.625 2.8.6a6.205 6.205 0 0 0 2.937-.637 5.206 5.206 0 0 0 1.91-1.705 7.432 7.432 0 0 0 1.043-2.47c.225-.97.34-1.96.34-2.954.006-.955-.104-1.91-.327-2.84v.005z"/><path fill="#586EB2" d="M73.748 24.342a8.213 8.213 0 0 1-1.603 3.03 7.558 7.558 0 0 1-2.703 2.01 9.205 9.205 0 0 1-3.822.732 9.59 9.59 0 0 1-3.845-.716 7.445 7.445 0 0 1-2.727-2.008 8.492 8.492 0 0 1-1.64-3.048 12.985 12.985 0 0 1-.542-3.845c-.024-1.334.14-2.664.487-3.952a7.807 7.807 0 0 1 1.58-2.96 6.788 6.788 0 0 1 2.726-1.89 12.2 12.2 0 0 1 7.898 0 6.66 6.66 0 0 1 2.67 1.89 7.967 7.967 0 0 1 1.537 2.96c.354 1.287.525 2.617.508 3.95.01 1.302-.166 2.597-.525 3.847zm-2.26-7.067a5.328 5.328 0 0 0-1.04-2.144 4.817 4.817 0 0 0-1.913-1.363 7.728 7.728 0 0 0-2.915-.48 7.02 7.02 0 0 0-2.897.54 5.066 5.066 0 0 0-1.95 1.508 6.505 6.505 0 0 0-1.122 2.298 11.25 11.25 0 0 0 0 5.697 6.583 6.583 0 0 0 1.16 2.355 5.853 5.853 0 0 0 1.97 1.603 6.106 6.106 0 0 0 2.8.6 6.208 6.208 0 0 0 2.938-.638 5.206 5.206 0 0 0 1.91-1.705 7.428 7.428 0 0 0 1.042-2.47c.226-.97.34-1.96.34-2.953.008-.96-.1-1.917-.323-2.85v.003z"/><path fill="#5D5CA4" d="M90.507 29.65a.78.78 0 0 1-.525.232h-1.507l-9.15-8.806v8.083c-.074.16-.178.304-.307.425-.12.13-.266.235-.426.31h-1.08l-.464-.395-.195-.34V1.302c.064-.172.17-.324.31-.443.133-.13.29-.228.464-.29h.928c.16.073.305.177.426.306.13.122.233.266.307.426v16.142a318.182 318.182 0 0 0 3.863-3.225A314.212 314.212 0 0 1 87.01 11h1.465a.682.682 0 0 1 .563.252c.14.167.215.38.21.597l-.193.34-8.523 6.91c.18.18.566.542 1.16 1.08.592.54 1.26 1.166 2.007 1.876.745.71 1.54 1.462 2.385 2.26.846.797 1.606 1.54 2.298 2.22a37.3 37.3 0 0 1 1.705 1.758c.27.245.5.532.68.85a.682.682 0 0 1-.26.507z"/><path fill="#5F4A96" d="M95.545 7.794l-.306.116h-1.47l-.307-.116-.31-.272-.158-.307V5.75c.047-.124.113-.24.195-.342a8.87 8.87 0 0 1 .232-.252l.31-.154h1.47c.172.064.33.162.463.29.14.12.247.274.31.447v1.465c-.068.24-.22.45-.43.59zm-.153 21.836c-.115.104-.246.19-.39.252h-1.117l-.467-.382-.194-.34V12.038a1.32 1.32 0 0 1 .48-.607l.27-.115h1.023l.27.116c.213.154.375.37.463.618v17.26a2.257 2.257 0 0 1-.338.32z"/><path fill="#5B2B82" d="M110.955 28.528l-.232.427a6.637 6.637 0 0 1-2.087.87 9.634 9.634 0 0 1-2.277.29 5.932 5.932 0 0 1-2.472-.445 3.73 3.73 0 0 1-1.524-1.234 4.79 4.79 0 0 1-.774-1.892 13.14 13.14 0 0 1-.212-2.45V14.16h-2.28l-.464-.386-.153-.34v-.853l.117-.27c.153-.212.37-.374.617-.462h2.164c.052-.825.075-1.65.075-2.472 0-.82 0-1.687.04-2.512.1-.128.214-.243.342-.34.12-.106.258-.19.406-.254h.89l.46.39.195.34v4.848h6.01c.143.09.267.206.37.34.102.122.187.257.25.403v.853a1.39 1.39 0 0 1-.31.426c-.12.13-.264.236-.425.31h-5.908v9.91c0 .44.032.878.095 1.312.06.425.192.836.39 1.217.184.362.455.674.79.906.38.242.825.36 1.275.34.426-.002.85-.073 1.254-.21.425-.143.817-.29 1.176-.444.362-.156.682-.303.948-.443.17-.107.36-.18.56-.212a.57.57 0 0 1 .6.34c.085.217.12.45.098.683l-.003.948z"/><path fill="#5D2D80" d="M129.875 27.455h-.177a10.636 10.636 0 0 1-2.966 2.573l.037.09a34.664 34.664 0 0 1 7.632-.04l.024-.087c-1.636-.555-3.692-1.605-4.55-2.535zm21.498-9.498c0-.11.705-3.488.702-4.793 0-3.106.034-6.024-1.943-8.458-2.6-3.205-7.28-5.325-14.445-3.382s-10.13 6.136-10.762 10.227c-.477 3.1 1.872 6.31 1.885 6.42a3.5 3.5 0 0 0 1.442 6.075l.02.082c.103.242 2.61 5.557 10.818 5.557s10.71-5.315 10.817-5.557v-.082a3.5 3.5 0 0 0 1.45-6.075l.016-.013zm-2.414-4.09a11.59 11.59 0 0 1-2.02 2.617 17.294 17.294 0 0 1-6.22 3.43c-2.33.55-4.745.612-7.098.18a11.635 11.635 0 0 1-3.07-1.24c-2.184-1.466-3.408-5.114-2.9-8.097A7.214 7.214 0 0 1 129.5 7.26c1.483-1.498 4.224-2.104 6.04-1.74.396.082 1.41.427 1.41.427s.7-.812 1-1.08c1.385-1.235 4.06-2.094 6.093-1.552a7.22 7.22 0 0 1 3.338 2.072c1.947 2.33 2.728 6.086 1.583 8.455l-.004.024zm-7.037-3.737c-1.364 1.408-2.128 3.675-2.387 5.437-1.1-1.398-2.9-2.97-4.793-3.498-1.946-.54-4.69.85-4.943 2.805.644.528 2.8 1.043 4.432.515 1.023-.34 1.558-1.118 2.195-1.756a18.85 18.85 0 0 1 3.692 4.09c.11-1.84.49-3.657 1.124-5.39.87.226 1.705.64 2.782.407 1.674-.367 3.273-1.898 3.563-2.682-1.188-1.565-4.26-1.38-5.667.072zm6.562 17.325h-.177c-.856.94-2.915 1.994-4.55 2.532l.023.086a34.664 34.664 0 0 1 7.634.04l.037-.088a10.69 10.69 0 0 1-2.965-2.57z"/><path fill="#5B2B82" d="M112.305 51.802c-.193.33-.464.607-.788.808a3.61 3.61 0 0 1-1.105.45 5.397 5.397 0 0 1-1.227.143c-.457 0-.913-.04-1.363-.122a6.597 6.597 0 0 1-1.31-.368l-.163-.245v-.716a.36.36 0 0 1 .122-.275.413.413 0 0 1 .286-.113c.135.01.266.045.39.103.162.068.34.143.57.225.233.082.455.157.707.225.257.07.522.103.788.102.24 0 .48-.025.715-.072.24-.043.47-.126.682-.245.2-.112.373-.27.5-.46.133-.203.2-.44.196-.682a1.183 1.183 0 0 0-.368-.9 3.886 3.886 0 0 0-.91-.624 13.962 13.962 0 0 0-1.187-.532 5.76 5.76 0 0 1-1.185-.634 3.41 3.41 0 0 1-.91-.94 2.543 2.543 0 0 1-.37-1.422 2.2 2.2 0 0 1 .257-1.105c.166-.295.4-.547.682-.735.3-.197.632-.34.98-.42a4.793 4.793 0 0 1 1.126-.133c.886 0 1.767.124 2.62.37l.12.162a.808.808 0 0 1 .104.184v.573a.453.453 0 0 1-.092.257.276.276 0 0 1-.236.133 2.68 2.68 0 0 1-.613-.072 12.1 12.1 0 0 1-.624-.163l-.635-.174a2.588 2.588 0 0 0-.645-.08 3.805 3.805 0 0 0-.603.05c-.2.03-.395.096-.573.194-.165.09-.308.217-.42.37a.985.985 0 0 0-.163.592c-.012.348.12.686.37.93.27.256.576.47.91.634.36.185.757.362 1.186.532.42.165.817.378 1.186.634.362.252.67.572.91.94.26.43.388.923.37 1.423.013.42-.086.834-.287 1.202zm10.012-2.127a5.666 5.666 0 0 1-1.002 1.8 4.93 4.93 0 0 1-1.585 1.258c-.652.32-1.37.482-2.097.47-.328 0-.656-.017-.982-.05a8.768 8.768 0 0 1-.96-.154v4.294l-.082.164a.62.62 0 0 1-.34.225h-.512a.535.535 0 0 1-.225-.153.65.65 0 0 1-.143-.236V43.63a.62.62 0 0 1 .225-.34l.144-.062h.51l.165.062a.682.682 0 0 1 .246.34v.635c.366-.367.8-.66 1.28-.86a3.825 3.825 0 0 1 1.502-.306c1.432 0 2.49.398 3.17 1.195.682.798 1.023 1.886 1.023 3.263a6.477 6.477 0 0 1-.333 2.117zm-1.104-3.436a2.782 2.782 0 0 0-.512-1.024 2.386 2.386 0 0 0-.9-.682 3.262 3.262 0 0 0-1.33-.245 2.54 2.54 0 0 0-1.185.265 2.727 2.727 0 0 0-.87.705c-.242.303-.423.65-.53 1.023a4.053 4.053 0 0 0-.175 1.186v4.315c.31.095.63.16.95.195.324.034.648.05.973.05a3.324 3.324 0 0 0 1.616-.378 3.655 3.655 0 0 0 1.175-1.022c.324-.43.566-.916.716-1.432a5.768 5.768 0 0 0 .236-1.637 5.042 5.042 0 0 0-.163-1.32zm10.472 6.687a.682.682 0 0 1-.245.154h-.43l-.163-.08a2.36 2.36 0 0 1-.123-.134.603.603 0 0 1-.102-.174l-.02-1.002a3.682 3.682 0 0 1-3.028 1.513 3.31 3.31 0 0 1-1.238-.225 3.048 3.048 0 0 1-.98-.623 2.663 2.663 0 0 1-.646-.972 3.378 3.378 0 0 1-.225-1.248c-.017-.48.08-.957.287-1.39.182-.36.445-.67.767-.91a3.48 3.48 0 0 1 1.103-.543c.425-.124.86-.21 1.3-.256.454-.047.91-.075 1.363-.08h1.268v-.82c0-.71-.188-1.186-.563-1.43a2.795 2.795 0 0 0-1.543-.37c-.336.002-.67.053-.992.154a7.183 7.183 0 0 0-.92.34c-.28.13-.52.244-.716.342-.108.066-.222.118-.342.153a.307.307 0 0 1-.34-.276 2.67 2.67 0 0 1-.052-.48v-.31l.122-.244c.478-.177.887-.324 1.228-.44.34-.116.695-.218 1.063-.307.307-.08.623-.126.94-.134.488-.005.974.04 1.452.133.39.073.756.234 1.074.47.31.236.546.555.682.92.163.47.24.966.225 1.463v6.56a.57.57 0 0 1-.208.244zm-1.81-4.93a1.848 1.848 0 0 0-.747.052c-.13.03-.265.04-.398.03a3.153 3.153 0 0 0-.44 0c-.305.025-.606.08-.9.163a2.703 2.703 0 0 0-.777.358c-.23.155-.42.362-.553.605a1.878 1.878 0 0 0-.204.92c0 .24.04.48.122.706.076.218.19.42.34.594.15.17.33.313.533.42.21.11.446.165.683.163.5.017.994-.1 1.432-.34.373-.217.686-.523.91-.89.23-.383.393-.8.48-1.238.096-.462.144-.93.144-1.402l.1-.205a1.83 1.83 0 0 1-.725.065zm11.71 4.163l-.102.225a5.85 5.85 0 0 1-1.606.614c-.558.13-1.13.2-1.704.203a4.98 4.98 0 0 1-2.107-.398 3.603 3.603 0 0 1-1.39-1.105 4.507 4.507 0 0 1-.768-1.667 8.748 8.748 0 0 1-.235-2.086 6.65 6.65 0 0 1 .276-1.974 4.18 4.18 0 0 1 .837-1.534 3.716 3.716 0 0 1 1.402-.993 5.16 5.16 0 0 1 1.983-.34c.51 0 1.02.04 1.524.12.5.08.992.218 1.462.41l.163.246v.682a.395.395 0 0 1-.103.276.34.34 0 0 1-.265.113 1.776 1.776 0 0 1-.522-.102l-.682-.224a12.924 12.924 0 0 0-.776-.225 3.167 3.167 0 0 0-.788-.1 3.34 3.34 0 0 0-1.442.285 2.84 2.84 0 0 0-1.002.777c-.273.34-.47.735-.583 1.156-.127.47-.19.955-.185 1.442a6.927 6.927 0 0 0 .164 1.514c.096.465.284.906.55 1.3.255.362.585.664.97.885a2.97 2.97 0 0 0 1.503.34c.328-.002.655-.05.97-.143a14.2 14.2 0 0 0 .952-.307c.3-.11.556-.21.767-.307.13-.07.273-.118.42-.143a.457.457 0 0 1 .255.286c.035.127.052.258.05.39l.008.384zm9.972-4.09l-.174.183c-1.105.04-2.206.08-3.303.113-1.098.034-2.2.05-3.304.05.01.48.085.955.225 1.412.125.414.323.802.584 1.146.257.33.59.594.972.767.45.196.94.29 1.43.277.327-.002.65-.05.963-.143a10.913 10.913 0 0 0 1.625-.614c.112-.063.233-.112.358-.143a.303.303 0 0 1 .34.266c.033.155.05.312.052.47v.307l-.123.225a5.274 5.274 0 0 1-1.554.614 7.34 7.34 0 0 1-1.657.203 5.168 5.168 0 0 1-2.157-.398 3.467 3.467 0 0 1-1.39-1.115 4.585 4.585 0 0 1-.748-1.705 9.586 9.586 0 0 1-.225-2.148 6.174 6.174 0 0 1 .287-1.922 4.108 4.108 0 0 1 .85-1.504 3.828 3.828 0 0 1 1.4-.97 4.988 4.988 0 0 1 1.923-.34 3.808 3.808 0 0 1 1.81.388c.47.245.868.608 1.155 1.053.296.467.504.984.614 1.525.124.592.185 1.195.183 1.8a.682.682 0 0 1-.136.204zm-1.4-2.046a2.98 2.98 0 0 0-.46-.89 2.247 2.247 0 0 0-.738-.624 2.16 2.16 0 0 0-1.024-.235 3.007 3.007 0 0 0-3.15 2.925h.634c.832 0 1.66-.007 2.486-.02a37.044 37.044 0 0 0 2.464-.123 4.432 4.432 0 0 0-.214-1.023v-.01z"/><path d="M-13-8h179.008v74.888H-13z"/></g></svg>
